# MagicaVoxel @ Ephtracy

# group
o 

# material
mtllib Caution Sign.mtl
usemtl palette

# normals
vn -1 0 0
vn 1 0 0
vn 0 0 1
vn 0 0 -1
vn 0 -1 0
vn 0 1 0

# texcoords
vt 0.0214844 0.5
vt 0.0253906 0.5
vt 0.994141 0.5

# verts
v -0.7 0 0.6
v -0.7 0 0.5
v -0.7 0 0.3
v -0.7 0 0.2
v -0.7 1.2 0.6
v -0.7 1.2 0.5
v -0.7 1.2 0.3
v -0.7 1.2 0.2
v -0.7 1.3 0.5
v -0.7 1.3 0.3
v 5.96046e-08 0 0.6
v 5.96046e-08 0 0.5
v 5.96046e-08 0 0.3
v 5.96046e-08 0 0.2
v 5.96046e-08 0.2 0.6
v 5.96046e-08 0.2 0.5
v 5.96046e-08 0.2 0.3
v 5.96046e-08 0.2 0.2
v -0.6 0 0.6
v -0.6 0 0.5
v -0.6 0 0.3
v -0.6 0 0.2
v -0.6 0.2 0.6
v -0.6 0.2 0.5
v -0.6 0.2 0.3
v -0.6 0.2 0.2
v 0.1 0 0.6
v 0.1 0 0.5
v 0.1 0 0.3
v 0.1 0 0.2
v 0.1 1.2 0.6
v 0.1 1.2 0.5
v 0.1 1.2 0.3
v 0.1 1.2 0.2
v 0.1 1.3 0.5
v 0.1 1.3 0.3
v -0.7 0 0.6
v -0.7 1.2 0.6
v -0.6 0 0.6
v -0.6 0.2 0.6
v -0.6 0.3 0.6
v -0.4 0.4 0.6
v -0.4 0.6 0.6
v -0.4 0.7 0.6
v -0.4 1.1 0.6
v -0.2 0.4 0.6
v -0.2 0.6 0.6
v -0.2 0.7 0.6
v -0.2 1.1 0.6
v 5.96046e-08 0 0.6
v 5.96046e-08 0.2 0.6
v 5.96046e-08 0.3 0.6
v 0.1 0 0.6
v 0.1 1.2 0.6
v -0.7 1.2 0.5
v -0.7 1.3 0.5
v 0.1 1.2 0.5
v 0.1 1.3 0.5
v -0.7 0 0.3
v -0.7 1.2 0.3
v -0.6 0 0.3
v -0.6 0.2 0.3
v -0.6 0.3 0.3
v -0.4 0.4 0.3
v -0.4 0.6 0.3
v -0.4 0.7 0.3
v -0.4 1.1 0.3
v -0.2 0.4 0.3
v -0.2 0.6 0.3
v -0.2 0.7 0.3
v -0.2 1.1 0.3
v 5.96046e-08 0 0.3
v 5.96046e-08 0.2 0.3
v 5.96046e-08 0.3 0.3
v 0.1 0 0.3
v 0.1 1.2 0.3
v -0.7 0 0.5
v -0.7 1.2 0.5
v -0.6 0 0.5
v -0.6 0.2 0.5
v -0.6 0.3 0.5
v -0.4 0.4 0.5
v -0.4 0.6 0.5
v -0.4 0.7 0.5
v -0.4 1.1 0.5
v -0.2 0.4 0.5
v -0.2 0.6 0.5
v -0.2 0.7 0.5
v -0.2 1.1 0.5
v 5.96046e-08 0 0.5
v 5.96046e-08 0.2 0.5
v 5.96046e-08 0.3 0.5
v 0.1 0 0.5
v 0.1 1.2 0.5
v -0.7 1.2 0.3
v -0.7 1.3 0.3
v 0.1 1.2 0.3
v 0.1 1.3 0.3
v -0.7 0 0.2
v -0.7 1.2 0.2
v -0.6 0 0.2
v -0.6 0.2 0.2
v -0.6 0.3 0.2
v -0.4 0.4 0.2
v -0.4 0.6 0.2
v -0.4 0.7 0.2
v -0.4 1.1 0.2
v -0.2 0.4 0.2
v -0.2 0.6 0.2
v -0.2 0.7 0.2
v -0.2 1.1 0.2
v 5.96046e-08 0 0.2
v 5.96046e-08 0.2 0.2
v 5.96046e-08 0.3 0.2
v 0.1 0 0.2
v 0.1 1.2 0.2
v -0.7 0 0.6
v -0.6 0 0.6
v 5.96046e-08 0 0.6
v 0.1 0 0.6
v -0.7 0 0.5
v -0.6 0 0.5
v 5.96046e-08 0 0.5
v 0.1 0 0.5
v -0.7 0 0.3
v -0.6 0 0.3
v 5.96046e-08 0 0.3
v 0.1 0 0.3
v -0.7 0 0.2
v -0.6 0 0.2
v 5.96046e-08 0 0.2
v 0.1 0 0.2
v -0.6 0.2 0.6
v 5.96046e-08 0.2 0.6
v -0.6 0.2 0.5
v 5.96046e-08 0.2 0.5
v -0.6 0.2 0.3
v 5.96046e-08 0.2 0.3
v -0.6 0.2 0.2
v 5.96046e-08 0.2 0.2
v -0.7 1.2 0.5
v 0.1 1.2 0.5
v -0.7 1.2 0.3
v 0.1 1.2 0.3
v -0.7 1.2 0.6
v 0.1 1.2 0.6
v -0.7 1.2 0.5
v 0.1 1.2 0.5
v -0.7 1.2 0.3
v 0.1 1.2 0.3
v -0.7 1.2 0.2
v 0.1 1.2 0.2
v -0.7 1.3 0.5
v 0.1 1.3 0.5
v -0.7 1.3 0.3
v 0.1 1.3 0.3

# faces
f 5/1/1 2/1/1 1/1/1
f 6/1/1 2/1/1 5/1/1
f 7/1/1 4/1/1 3/1/1
f 8/1/1 4/1/1 7/1/1
f 9/1/1 7/1/1 6/1/1
f 10/1/1 7/1/1 9/1/1
f 15/1/1 12/1/1 11/1/1
f 16/1/1 12/1/1 15/1/1
f 17/1/1 14/1/1 13/1/1
f 18/1/1 14/1/1 17/1/1
f 19/1/2 20/1/2 23/1/2
f 23/1/2 20/1/2 24/1/2
f 21/1/2 22/1/2 25/1/2
f 25/1/2 22/1/2 26/1/2
f 27/1/2 28/1/2 31/1/2
f 31/1/2 28/1/2 32/1/2
f 29/1/2 30/1/2 33/1/2
f 33/1/2 30/1/2 34/1/2
f 32/1/2 33/1/2 35/1/2
f 35/1/2 33/1/2 36/1/2
f 39/1/3 38/1/3 37/1/3
f 40/1/3 38/1/3 39/1/3
f 41/1/3 38/1/3 40/1/3
f 42/1/3 38/1/3 41/1/3
f 43/1/3 38/1/3 42/1/3
f 44/1/3 38/1/3 43/1/3
f 45/1/3 38/1/3 44/1/3
f 46/1/3 42/1/3 41/1/3
f 46/3/3 43/3/3 42/3/3
f 47/1/3 44/1/3 43/1/3
f 47/3/3 43/3/3 46/3/3
f 48/3/3 45/3/3 44/3/3
f 48/1/3 44/1/3 47/1/3
f 49/1/3 38/1/3 45/1/3
f 49/3/3 45/3/3 48/3/3
f 51/2/3 41/2/3 40/2/3
f 52/1/3 48/1/3 47/1/3
f 52/1/3 47/1/3 46/1/3
f 52/2/3 41/2/3 51/2/3
f 52/1/3 46/1/3 41/1/3
f 52/1/3 49/1/3 48/1/3
f 53/1/3 51/1/3 50/1/3
f 53/1/3 52/1/3 51/1/3
f 54/1/3 38/1/3 49/1/3
f 54/1/3 52/1/3 53/1/3
f 54/1/3 49/1/3 52/1/3
f 57/1/3 56/1/3 55/1/3
f 58/1/3 56/1/3 57/1/3
f 61/1/3 60/1/3 59/1/3
f 62/1/3 60/1/3 61/1/3
f 63/1/3 60/1/3 62/1/3
f 64/1/3 60/1/3 63/1/3
f 65/1/3 60/1/3 64/1/3
f 66/1/3 60/1/3 65/1/3
f 67/1/3 60/1/3 66/1/3
f 68/1/3 64/1/3 63/1/3
f 68/3/3 65/3/3 64/3/3
f 69/1/3 66/1/3 65/1/3
f 69/3/3 65/3/3 68/3/3
f 70/3/3 67/3/3 66/3/3
f 70/1/3 66/1/3 69/1/3
f 71/1/3 60/1/3 67/1/3
f 71/3/3 67/3/3 70/3/3
f 73/2/3 63/2/3 62/2/3
f 74/1/3 70/1/3 69/1/3
f 74/1/3 69/1/3 68/1/3
f 74/2/3 63/2/3 73/2/3
f 74/1/3 68/1/3 63/1/3
f 74/1/3 71/1/3 70/1/3
f 75/1/3 73/1/3 72/1/3
f 75/1/3 74/1/3 73/1/3
f 76/1/3 60/1/3 71/1/3
f 76/1/3 74/1/3 75/1/3
f 76/1/3 71/1/3 74/1/3
f 77/1/4 78/1/4 79/1/4
f 79/1/4 78/1/4 80/1/4
f 80/1/4 78/1/4 81/1/4
f 81/1/4 78/1/4 82/1/4
f 82/1/4 78/1/4 83/1/4
f 83/1/4 78/1/4 84/1/4
f 84/1/4 78/1/4 85/1/4
f 81/1/4 82/1/4 86/1/4
f 82/3/4 83/3/4 86/3/4
f 83/1/4 84/1/4 87/1/4
f 86/3/4 83/3/4 87/3/4
f 84/3/4 85/3/4 88/3/4
f 87/1/4 84/1/4 88/1/4
f 85/1/4 78/1/4 89/1/4
f 88/3/4 85/3/4 89/3/4
f 80/2/4 81/2/4 91/2/4
f 87/1/4 88/1/4 92/1/4
f 86/1/4 87/1/4 92/1/4
f 91/2/4 81/2/4 92/2/4
f 81/1/4 86/1/4 92/1/4
f 88/1/4 89/1/4 92/1/4
f 90/1/4 91/1/4 93/1/4
f 91/1/4 92/1/4 93/1/4
f 89/1/4 78/1/4 94/1/4
f 93/1/4 92/1/4 94/1/4
f 92/1/4 89/1/4 94/1/4
f 95/1/4 96/1/4 97/1/4
f 97/1/4 96/1/4 98/1/4
f 99/1/4 100/1/4 101/1/4
f 101/1/4 100/1/4 102/1/4
f 102/1/4 100/1/4 103/1/4
f 103/1/4 100/1/4 104/1/4
f 104/1/4 100/1/4 105/1/4
f 105/1/4 100/1/4 106/1/4
f 106/1/4 100/1/4 107/1/4
f 103/1/4 104/1/4 108/1/4
f 104/3/4 105/3/4 108/3/4
f 105/1/4 106/1/4 109/1/4
f 108/3/4 105/3/4 109/3/4
f 106/3/4 107/3/4 110/3/4
f 109/1/4 106/1/4 110/1/4
f 107/1/4 100/1/4 111/1/4
f 110/3/4 107/3/4 111/3/4
f 102/2/4 103/2/4 113/2/4
f 109/1/4 110/1/4 114/1/4
f 108/1/4 109/1/4 114/1/4
f 113/2/4 103/2/4 114/2/4
f 103/1/4 108/1/4 114/1/4
f 110/1/4 111/1/4 114/1/4
f 112/1/4 113/1/4 115/1/4
f 113/1/4 114/1/4 115/1/4
f 111/1/4 100/1/4 116/1/4
f 115/1/4 114/1/4 116/1/4
f 114/1/4 111/1/4 116/1/4
f 121/1/5 118/1/5 117/1/5
f 122/1/5 118/1/5 121/1/5
f 123/1/5 120/1/5 119/1/5
f 124/1/5 120/1/5 123/1/5
f 129/1/5 126/1/5 125/1/5
f 130/1/5 126/1/5 129/1/5
f 131/1/5 128/1/5 127/1/5
f 132/1/5 128/1/5 131/1/5
f 135/2/5 134/2/5 133/2/5
f 136/2/5 134/2/5 135/2/5
f 139/2/5 138/2/5 137/2/5
f 140/2/5 138/2/5 139/2/5
f 143/1/5 142/1/5 141/1/5
f 144/1/5 142/1/5 143/1/5
f 145/1/6 146/1/6 147/1/6
f 147/1/6 146/1/6 148/1/6
f 149/1/6 150/1/6 151/1/6
f 151/1/6 150/1/6 152/1/6
f 153/1/6 154/1/6 155/1/6
f 155/1/6 154/1/6 156/1/6
