# MagicaVoxel @ Ephtracy

# group
o 

# material
mtllib Luggage.mtl
usemtl palette

# normals
vn -1 0 0
vn 1 0 0
vn 0 0 1
vn 0 0 -1
vn 0 -1 0
vn 0 1 0

# texcoords
vt 0.431641 0.5
vt 0.630859 0.5
vt 0.634766 0.5
vt 0.771484 0.5
vt 0.775391 0.5
vt 0.955078 0.5

# verts
v -1.7 0 0.9
v -1.7 0 0.1
v -1.7 0.6 0.9
v -1.7 0.6 0.1
v -0.6 0.2 0.6
v -0.6 0.2 0.4
v -0.6 0.4 0.6
v -0.6 0.4 0.4
v 0.2 0 0.7
v 0.2 0 -0.2
v 0.2 0.7 0.7
v 0.2 0.7 -0.2
v 0.2 1 0.7
v 0.2 1 -0.2
v -0.7 0 0.9
v -0.7 0 0.1
v -0.7 0.1 0.8
v -0.7 0.1 0.2
v -0.7 0.2 0.7
v -0.7 0.2 0.6
v -0.7 0.2 0.4
v -0.7 0.2 0.3
v -0.7 0.4 0.7
v -0.7 0.4 0.6
v -0.7 0.4 0.4
v -0.7 0.4 0.3
v -0.7 0.5 0.8
v -0.7 0.5 0.2
v -0.7 0.6 0.9
v -0.7 0.6 0.1
v -0.5 0.2 0.7
v -0.5 0.2 0.3
v -0.5 0.4 0.7
v -0.5 0.4 0.3
v 1.7 0 0.7
v 1.7 0 -0.2
v 1.7 0.7 0.7
v 1.7 0.7 -0.2
v 1.7 1 0.7
v 1.7 1 -0.2
v -1.7 0 0.9
v -1.7 0.6 0.9
v -1.6 0 0.9
v -1.6 0.6 0.9
v -1.5 0 0.9
v -1.5 0.6 0.9
v -1 0 0.9
v -1 0.6 0.9
v -0.9 0 0.9
v -0.9 0.6 0.9
v -0.7 0 0.9
v -0.7 0.6 0.9
v -0.7 0.2 0.7
v -0.7 0.4 0.7
v -0.5 0.2 0.7
v -0.5 0.4 0.7
v 0.2 0 0.7
v 0.2 0.7 0.7
v 0.2 1 0.7
v 1.7 0 0.7
v 1.7 0.7 0.7
v 1.7 1 0.7
v -0.7 0.2 0.4
v -0.7 0.4 0.4
v -0.6 0.2 0.4
v -0.6 0.4 0.4
v -0.7 0.2 0.6
v -0.7 0.4 0.6
v -0.6 0.2 0.6
v -0.6 0.4 0.6
v -0.7 0.2 0.3
v -0.7 0.4 0.3
v -0.5 0.2 0.3
v -0.5 0.4 0.3
v -1.7 0 0.1
v -1.7 0.6 0.1
v -1.6 0 0.1
v -1.6 0.6 0.1
v -1.5 0 0.1
v -1.5 0.6 0.1
v -1 0 0.1
v -1 0.6 0.1
v -0.9 0 0.1
v -0.9 0.6 0.1
v -0.7 0 0.1
v -0.7 0.6 0.1
v 0.2 0 -0.2
v 0.2 0.7 -0.2
v 0.2 1 -0.2
v 0.8 0.6 -0.2
v 0.8 0.7 -0.2
v 0.8 0.8 -0.2
v 1.1 0.6 -0.2
v 1.1 0.7 -0.2
v 1.1 0.8 -0.2
v 1.7 0 -0.2
v 1.7 0.7 -0.2
v 1.7 1 -0.2
v -1.7 0 0.9
v -1.6 0 0.9
v -1.5 0 0.9
v -1 0 0.9
v -0.9 0 0.9
v -0.7 0 0.9
v 0.2 0 0.7
v 1.7 0 0.7
v -1.7 0 0.1
v -1.6 0 0.1
v -1.5 0 0.1
v -1 0 0.1
v -0.9 0 0.1
v -0.7 0 0.1
v 0.2 0 -0.2
v 1.7 0 -0.2
v -0.7 0.2 0.7
v -0.5 0.2 0.7
v -0.7 0.2 0.6
v -0.6 0.2 0.6
v -0.7 0.2 0.4
v -0.6 0.2 0.4
v -0.7 0.2 0.3
v -0.5 0.2 0.3
v -0.7 0.4 0.7
v -0.5 0.4 0.7
v -0.7 0.4 0.6
v -0.6 0.4 0.6
v -0.7 0.4 0.4
v -0.6 0.4 0.4
v -0.7 0.4 0.3
v -0.5 0.4 0.3
v -1.7 0.6 0.9
v -1.6 0.6 0.9
v -1.5 0.6 0.9
v -1 0.6 0.9
v -0.9 0.6 0.9
v -0.7 0.6 0.9
v -1.7 0.6 0.1
v -1.6 0.6 0.1
v -1.5 0.6 0.1
v -1 0.6 0.1
v -0.9 0.6 0.1
v -0.7 0.6 0.1
v 0.2 1 0.7
v 1.7 1 0.7
v 0.2 1 -0.2
v 1.7 1 -0.2

# faces
f 3/3/1 2/3/1 1/3/1
f 4/3/1 2/3/1 3/3/1
f 7/6/1 6/6/1 5/6/1
f 8/6/1 6/6/1 7/6/1
f 11/5/1 10/5/1 9/5/1
f 12/5/1 10/5/1 11/5/1
f 13/4/1 12/4/1 11/4/1
f 14/4/1 12/4/1 13/4/1
f 15/3/2 16/3/2 17/3/2
f 17/3/2 16/3/2 18/3/2
f 17/2/2 18/2/2 19/2/2
f 19/2/2 18/2/2 20/2/2
f 20/2/2 18/2/2 21/2/2
f 21/2/2 18/2/2 22/2/2
f 17/2/2 19/2/2 23/2/2
f 20/2/2 21/2/2 24/2/2
f 24/2/2 21/2/2 25/2/2
f 22/2/2 18/2/2 26/2/2
f 15/3/2 17/3/2 27/3/2
f 25/2/2 26/2/2 27/2/2
f 24/2/2 25/2/2 27/2/2
f 17/2/2 23/2/2 27/2/2
f 23/2/2 24/2/2 27/2/2
f 26/2/2 18/2/2 28/2/2
f 27/2/2 26/2/2 28/2/2
f 18/3/2 16/3/2 28/3/2
f 15/3/2 27/3/2 29/3/2
f 27/3/2 28/3/2 29/3/2
f 28/3/2 16/3/2 30/3/2
f 29/3/2 28/3/2 30/3/2
f 31/6/2 32/6/2 33/6/2
f 33/6/2 32/6/2 34/6/2
f 35/5/2 36/5/2 37/5/2
f 37/5/2 36/5/2 38/5/2
f 37/4/2 38/4/2 39/4/2
f 39/4/2 38/4/2 40/4/2
f 43/3/3 42/3/3 41/3/3
f 44/3/3 42/3/3 43/3/3
f 45/6/3 44/6/3 43/6/3
f 46/6/3 44/6/3 45/6/3
f 47/3/3 46/3/3 45/3/3
f 48/3/3 46/3/3 47/3/3
f 49/6/3 48/6/3 47/6/3
f 50/6/3 48/6/3 49/6/3
f 51/3/3 50/3/3 49/3/3
f 52/3/3 50/3/3 51/3/3
f 55/6/3 54/6/3 53/6/3
f 56/6/3 54/6/3 55/6/3
f 60/5/3 58/5/3 57/5/3
f 61/4/3 59/4/3 58/4/3
f 61/5/3 58/5/3 60/5/3
f 62/4/3 59/4/3 61/4/3
f 65/6/3 64/6/3 63/6/3
f 66/6/3 64/6/3 65/6/3
f 67/6/4 68/6/4 69/6/4
f 69/6/4 68/6/4 70/6/4
f 71/6/4 72/6/4 73/6/4
f 73/6/4 72/6/4 74/6/4
f 75/3/4 76/3/4 77/3/4
f 77/3/4 76/3/4 78/3/4
f 77/6/4 78/6/4 79/6/4
f 79/6/4 78/6/4 80/6/4
f 79/3/4 80/3/4 81/3/4
f 81/3/4 80/3/4 82/3/4
f 81/6/4 82/6/4 83/6/4
f 83/6/4 82/6/4 84/6/4
f 83/3/4 84/3/4 85/3/4
f 85/3/4 84/3/4 86/3/4
f 87/5/4 88/5/4 90/5/4
f 88/4/4 89/4/4 91/4/4
f 90/5/4 88/5/4 91/5/4
f 91/4/4 89/4/4 92/4/4
f 87/5/4 90/5/4 93/5/4
f 90/1/4 91/1/4 93/1/4
f 91/1/4 92/1/4 93/1/4
f 93/1/4 92/1/4 94/1/4
f 92/4/4 89/4/4 95/4/4
f 94/1/4 92/1/4 95/1/4
f 93/5/4 94/5/4 96/5/4
f 87/5/4 93/5/4 96/5/4
f 94/4/4 95/4/4 97/4/4
f 96/5/4 94/5/4 97/5/4
f 95/4/4 89/4/4 98/4/4
f 97/4/4 95/4/4 98/4/4
f 107/3/5 100/3/5 99/3/5
f 108/6/5 101/6/5 100/6/5
f 108/3/5 100/3/5 107/3/5
f 109/3/5 102/3/5 101/3/5
f 109/6/5 101/6/5 108/6/5
f 110/6/5 103/6/5 102/6/5
f 110/3/5 102/3/5 109/3/5
f 111/3/5 104/3/5 103/3/5
f 111/6/5 103/6/5 110/6/5
f 112/3/5 104/3/5 111/3/5
f 113/5/5 106/5/5 105/5/5
f 114/5/5 106/5/5 113/5/5
f 117/6/5 116/6/5 115/6/5
f 118/6/5 116/6/5 117/6/5
f 120/6/5 116/6/5 118/6/5
f 121/6/5 120/6/5 119/6/5
f 122/6/5 116/6/5 120/6/5
f 122/6/5 120/6/5 121/6/5
f 123/6/6 124/6/6 125/6/6
f 125/6/6 124/6/6 126/6/6
f 126/6/6 124/6/6 128/6/6
f 127/6/6 128/6/6 129/6/6
f 128/6/6 124/6/6 130/6/6
f 129/6/6 128/6/6 130/6/6
f 131/3/6 132/3/6 137/3/6
f 132/6/6 133/6/6 138/6/6
f 137/3/6 132/3/6 138/3/6
f 133/3/6 134/3/6 139/3/6
f 138/6/6 133/6/6 139/6/6
f 134/6/6 135/6/6 140/6/6
f 139/3/6 134/3/6 140/3/6
f 135/3/6 136/3/6 141/3/6
f 140/6/6 135/6/6 141/6/6
f 141/3/6 136/3/6 142/3/6
f 143/4/6 144/4/6 145/4/6
f 145/4/6 144/4/6 146/4/6
