# MagicaVoxel @ Ephtracy

# group
o 

# material
mtllib LuggageRed.mtl
usemtl palette

# normals
vn -1 0 0
vn 1 0 0
vn 0 0 1
vn 0 0 -1
vn 0 -1 0
vn 0 1 0

# texcoords
vt 0.431641 0.5
vt 0.771484 0.5
vt 0.775391 0.5

# verts
v 0.2 0 0.7
v 0.2 0 -0.2
v 0.2 0.7 0.7
v 0.2 0.7 -0.2
v 0.2 1 0.7
v 0.2 1 -0.2
v 0.8 0.6 -0.2
v 0.8 0.6 -0.3
v 0.8 0.7 -0.2
v 0.8 0.8 -0.2
v 0.8 0.8 -0.3
v 1.1 0.6 -0.2
v 1.1 0.6 -0.3
v 1.1 0.7 -0.2
v 1.1 0.8 -0.2
v 1.1 0.8 -0.3
v 1.7 0 0.7
v 1.7 0 -0.2
v 1.7 0.7 0.7
v 1.7 0.7 -0.2
v 1.7 1 0.7
v 1.7 1 -0.2
v 0.2 0 0.7
v 0.2 0.7 0.7
v 0.2 1 0.7
v 1.7 0 0.7
v 1.7 0.7 0.7
v 1.7 1 0.7
v 0.2 0 -0.2
v 0.2 0.7 -0.2
v 0.2 1 -0.2
v 0.8 0.6 -0.2
v 0.8 0.7 -0.2
v 0.8 0.8 -0.2
v 1.1 0.6 -0.2
v 1.1 0.7 -0.2
v 1.1 0.8 -0.2
v 1.7 0 -0.2
v 1.7 0.7 -0.2
v 1.7 1 -0.2
v 0.8 0.6 -0.3
v 0.8 0.8 -0.3
v 1.1 0.6 -0.3
v 1.1 0.8 -0.3
v 0.2 0 0.7
v 1.7 0 0.7
v 0.2 0 -0.2
v 1.7 0 -0.2
v 0.8 0.6 -0.2
v 1.1 0.6 -0.2
v 0.8 0.6 -0.3
v 1.1 0.6 -0.3
v 0.8 0.8 -0.2
v 1.1 0.8 -0.2
v 0.8 0.8 -0.3
v 1.1 0.8 -0.3
v 0.2 1 0.7
v 1.7 1 0.7
v 0.2 1 -0.2
v 1.7 1 -0.2

# faces
f 3/3/1 2/3/1 1/3/1
f 4/3/1 2/3/1 3/3/1
f 5/2/1 4/2/1 3/2/1
f 6/2/1 4/2/1 5/2/1
f 9/1/1 8/1/1 7/1/1
f 10/1/1 8/1/1 9/1/1
f 11/1/1 8/1/1 10/1/1
f 12/1/2 13/1/2 14/1/2
f 14/1/2 13/1/2 15/1/2
f 15/1/2 13/1/2 16/1/2
f 17/3/2 18/3/2 19/3/2
f 19/3/2 18/3/2 20/3/2
f 19/2/2 20/2/2 21/2/2
f 21/2/2 20/2/2 22/2/2
f 26/3/3 24/3/3 23/3/3
f 27/2/3 25/2/3 24/2/3
f 27/3/3 24/3/3 26/3/3
f 28/2/3 25/2/3 27/2/3
f 29/3/4 30/3/4 32/3/4
f 30/2/4 31/2/4 33/2/4
f 32/3/4 30/3/4 33/3/4
f 33/2/4 31/2/4 34/2/4
f 29/3/4 32/3/4 35/3/4
f 34/2/4 31/2/4 37/2/4
f 35/3/4 36/3/4 38/3/4
f 29/3/4 35/3/4 38/3/4
f 36/2/4 37/2/4 39/2/4
f 38/3/4 36/3/4 39/3/4
f 37/2/4 31/2/4 40/2/4
f 39/2/4 37/2/4 40/2/4
f 41/1/4 42/1/4 43/1/4
f 43/1/4 42/1/4 44/1/4
f 47/3/5 46/3/5 45/3/5
f 48/3/5 46/3/5 47/3/5
f 51/1/5 50/1/5 49/1/5
f 52/1/5 50/1/5 51/1/5
f 53/1/6 54/1/6 55/1/6
f 55/1/6 54/1/6 56/1/6
f 57/2/6 58/2/6 59/2/6
f 59/2/6 58/2/6 60/2/6
