# MagicaVoxel @ Ephtracy

# group
o 

# material
mtllib LuggagePink.mtl
usemtl palette

# normals
vn -1 0 0
vn 1 0 0
vn 0 0 1
vn 0 0 -1
vn 0 -1 0
vn 0 1 0

# texcoords
vt 0.306641 0.5
vt 0.310547 0.5

# verts
v -0.7 0 2.23517e-08
v -0.7 0 -0.8
v -0.7 0.2 2.23517e-08
v -0.7 0.2 -0.8
v -0.7 0.3 2.23517e-08
v -0.7 0.3 -0.8
v -0.7 0.8 2.23517e-08
v -0.7 0.8 -0.8
v -0.7 0.9 2.23517e-08
v -0.7 0.9 -0.8
v -0.7 1.2 2.23517e-08
v -0.7 1.2 -0.8
v -0.6 1.2 -0.1
v -0.6 1.2 -0.7
v -0.6 1.3 -0.1
v -0.6 1.3 -0.7
v -0.4 1.3 -0.3
v -0.4 1.3 -0.5
v -0.4 1.5 -0.3
v -0.4 1.5 -0.5
v -0.1 1.3 -0.3
v -0.1 1.3 -0.5
v -0.1 1.4 -0.3
v -0.1 1.4 -0.5
v -0.3 1.3 -0.3
v -0.3 1.3 -0.5
v -0.3 1.4 -0.3
v -0.3 1.4 -0.5
v 5.96046e-08 1.3 -0.3
v 5.96046e-08 1.3 -0.5
v 5.96046e-08 1.5 -0.3
v 5.96046e-08 1.5 -0.5
v 0.2 1.2 -0.1
v 0.2 1.2 -0.7
v 0.2 1.3 -0.1
v 0.2 1.3 -0.7
v 0.3 0 2.23517e-08
v 0.3 0 -0.8
v 0.3 0.2 2.23517e-08
v 0.3 0.2 -0.8
v 0.3 0.3 2.23517e-08
v 0.3 0.3 -0.8
v 0.3 0.8 2.23517e-08
v 0.3 0.8 -0.8
v 0.3 0.9 2.23517e-08
v 0.3 0.9 -0.8
v 0.3 1.2 2.23517e-08
v 0.3 1.2 -0.8
v -0.7 0 2.23517e-08
v -0.7 0.2 2.23517e-08
v -0.7 0.3 2.23517e-08
v -0.7 0.8 2.23517e-08
v -0.7 0.9 2.23517e-08
v -0.7 1.2 2.23517e-08
v 0.3 0 2.23517e-08
v 0.3 0.2 2.23517e-08
v 0.3 0.3 2.23517e-08
v 0.3 0.8 2.23517e-08
v 0.3 0.9 2.23517e-08
v 0.3 1.2 2.23517e-08
v -0.6 1.2 -0.1
v -0.6 1.3 -0.1
v 0.2 1.2 -0.1
v 0.2 1.3 -0.1
v -0.4 1.3 -0.3
v -0.4 1.5 -0.3
v -0.3 1.3 -0.3
v -0.3 1.4 -0.3
v -0.1 1.3 -0.3
v -0.1 1.4 -0.3
v 5.96046e-08 1.3 -0.3
v 5.96046e-08 1.5 -0.3
v -0.4 1.3 -0.5
v -0.4 1.5 -0.5
v -0.3 1.3 -0.5
v -0.3 1.4 -0.5
v -0.1 1.3 -0.5
v -0.1 1.4 -0.5
v 5.96046e-08 1.3 -0.5
v 5.96046e-08 1.5 -0.5
v -0.6 1.2 -0.7
v -0.6 1.3 -0.7
v 0.2 1.2 -0.7
v 0.2 1.3 -0.7
v -0.7 0 -0.8
v -0.7 0.2 -0.8
v -0.7 0.3 -0.8
v -0.7 0.8 -0.8
v -0.7 0.9 -0.8
v -0.7 1.2 -0.8
v 0.3 0 -0.8
v 0.3 0.2 -0.8
v 0.3 0.3 -0.8
v 0.3 0.8 -0.8
v 0.3 0.9 -0.8
v 0.3 1.2 -0.8
v -0.7 0 2.23517e-08
v 0.3 0 2.23517e-08
v -0.7 0 -0.8
v 0.3 0 -0.8
v -0.3 1.4 -0.3
v -0.1 1.4 -0.3
v -0.3 1.4 -0.5
v -0.1 1.4 -0.5
v -0.7 1.2 2.23517e-08
v 0.3 1.2 2.23517e-08
v -0.6 1.2 -0.1
v 0.2 1.2 -0.1
v -0.6 1.2 -0.7
v 0.2 1.2 -0.7
v -0.7 1.2 -0.8
v 0.3 1.2 -0.8
v -0.6 1.3 -0.1
v 0.2 1.3 -0.1
v -0.4 1.3 -0.3
v -0.3 1.3 -0.3
v -0.1 1.3 -0.3
v 5.96046e-08 1.3 -0.3
v -0.4 1.3 -0.5
v -0.3 1.3 -0.5
v -0.1 1.3 -0.5
v 5.96046e-08 1.3 -0.5
v -0.6 1.3 -0.7
v 0.2 1.3 -0.7
v -0.4 1.5 -0.3
v 5.96046e-08 1.5 -0.3
v -0.4 1.5 -0.5
v 5.96046e-08 1.5 -0.5

# faces
f 3/2/1 2/2/1 1/2/1
f 4/2/1 2/2/1 3/2/1
f 5/1/1 4/1/1 3/1/1
f 6/1/1 4/1/1 5/1/1
f 7/2/1 6/2/1 5/2/1
f 8/2/1 6/2/1 7/2/1
f 9/1/1 8/1/1 7/1/1
f 10/1/1 8/1/1 9/1/1
f 11/2/1 10/2/1 9/2/1
f 12/2/1 10/2/1 11/2/1
f 15/2/1 14/2/1 13/2/1
f 16/2/1 14/2/1 15/2/1
f 19/1/1 18/1/1 17/1/1
f 20/1/1 18/1/1 19/1/1
f 23/1/1 22/1/1 21/1/1
f 24/1/1 22/1/1 23/1/1
f 25/1/2 26/1/2 27/1/2
f 27/1/2 26/1/2 28/1/2
f 29/1/2 30/1/2 31/1/2
f 31/1/2 30/1/2 32/1/2
f 33/2/2 34/2/2 35/2/2
f 35/2/2 34/2/2 36/2/2
f 37/2/2 38/2/2 39/2/2
f 39/2/2 38/2/2 40/2/2
f 39/1/2 40/1/2 41/1/2
f 41/1/2 40/1/2 42/1/2
f 41/2/2 42/2/2 43/2/2
f 43/2/2 42/2/2 44/2/2
f 43/1/2 44/1/2 45/1/2
f 45/1/2 44/1/2 46/1/2
f 45/2/2 46/2/2 47/2/2
f 47/2/2 46/2/2 48/2/2
f 55/2/3 50/2/3 49/2/3
f 56/1/3 51/1/3 50/1/3
f 56/2/3 50/2/3 55/2/3
f 57/2/3 52/2/3 51/2/3
f 57/1/3 51/1/3 56/1/3
f 58/1/3 53/1/3 52/1/3
f 58/2/3 52/2/3 57/2/3
f 59/2/3 54/2/3 53/2/3
f 59/1/3 53/1/3 58/1/3
f 60/2/3 54/2/3 59/2/3
f 63/2/3 62/2/3 61/2/3
f 64/2/3 62/2/3 63/2/3
f 67/1/3 66/1/3 65/1/3
f 68/1/3 66/1/3 67/1/3
f 70/1/3 66/1/3 68/1/3
f 71/1/3 70/1/3 69/1/3
f 72/1/3 66/1/3 70/1/3
f 72/1/3 70/1/3 71/1/3
f 73/1/4 74/1/4 75/1/4
f 75/1/4 74/1/4 76/1/4
f 76/1/4 74/1/4 78/1/4
f 77/1/4 78/1/4 79/1/4
f 78/1/4 74/1/4 80/1/4
f 79/1/4 78/1/4 80/1/4
f 81/2/4 82/2/4 83/2/4
f 83/2/4 82/2/4 84/2/4
f 85/2/4 86/2/4 91/2/4
f 86/1/4 87/1/4 92/1/4
f 91/2/4 86/2/4 92/2/4
f 87/2/4 88/2/4 93/2/4
f 92/1/4 87/1/4 93/1/4
f 88/1/4 89/1/4 94/1/4
f 93/2/4 88/2/4 94/2/4
f 89/2/4 90/2/4 95/2/4
f 94/1/4 89/1/4 95/1/4
f 95/2/4 90/2/4 96/2/4
f 99/2/5 98/2/5 97/2/5
f 100/2/5 98/2/5 99/2/5
f 103/1/5 102/1/5 101/1/5
f 104/1/5 102/1/5 103/1/5
f 105/2/6 106/2/6 107/2/6
f 107/2/6 106/2/6 108/2/6
f 105/2/6 107/2/6 109/2/6
f 108/2/6 106/2/6 110/2/6
f 105/2/6 109/2/6 111/2/6
f 109/2/6 110/2/6 111/2/6
f 110/2/6 106/2/6 112/2/6
f 111/2/6 110/2/6 112/2/6
f 113/2/6 114/2/6 115/2/6
f 115/2/6 114/2/6 116/2/6
f 116/2/6 114/2/6 117/2/6
f 117/2/6 114/2/6 118/2/6
f 113/2/6 115/2/6 119/2/6
f 116/2/6 117/2/6 120/2/6
f 120/2/6 117/2/6 121/2/6
f 118/2/6 114/2/6 122/2/6
f 120/2/6 121/2/6 123/2/6
f 121/2/6 122/2/6 123/2/6
f 113/2/6 119/2/6 123/2/6
f 119/2/6 120/2/6 123/2/6
f 122/2/6 114/2/6 124/2/6
f 123/2/6 122/2/6 124/2/6
f 125/1/6 126/1/6 127/1/6
f 127/1/6 126/1/6 128/1/6
