# MagicaVoxel @ Ephtracy

# group
o 

# material
mtllib LuggageGreen.mtl
usemtl palette

# normals
vn -1 0 0
vn 1 0 0
vn 0 0 1
vn 0 0 -1
vn 0 -1 0
vn 0 1 0

# texcoords
vt 0.630859 0.5
vt 0.634766 0.5
vt 0.955078 0.5

# verts
v -1.7 0 0.9
v -1.7 0 0.1
v -1.7 0.6 0.9
v -1.7 0.6 0.1
v -0.6 0.2 0.6
v -0.6 0.2 0.4
v -0.6 0.4 0.6
v -0.6 0.4 0.4
v -0.7 0 0.9
v -0.7 0 0.1
v -0.7 0.1 0.8
v -0.7 0.1 0.2
v -0.7 0.2 0.7
v -0.7 0.2 0.6
v -0.7 0.2 0.4
v -0.7 0.2 0.3
v -0.7 0.4 0.7
v -0.7 0.4 0.6
v -0.7 0.4 0.4
v -0.7 0.4 0.3
v -0.7 0.5 0.8
v -0.7 0.5 0.2
v -0.7 0.6 0.9
v -0.7 0.6 0.1
v -0.5 0.2 0.7
v -0.5 0.2 0.3
v -0.5 0.4 0.7
v -0.5 0.4 0.3
v -1.7 0 0.9
v -1.7 0.6 0.9
v -1.6 0 0.9
v -1.6 0.6 0.9
v -1.5 0 0.9
v -1.5 0.6 0.9
v -1 0 0.9
v -1 0.6 0.9
v -0.9 0 0.9
v -0.9 0.6 0.9
v -0.7 0 0.9
v -0.7 0.6 0.9
v -0.7 0.2 0.7
v -0.7 0.4 0.7
v -0.5 0.2 0.7
v -0.5 0.4 0.7
v -0.7 0.2 0.4
v -0.7 0.4 0.4
v -0.6 0.2 0.4
v -0.6 0.4 0.4
v -0.7 0.2 0.6
v -0.7 0.4 0.6
v -0.6 0.2 0.6
v -0.6 0.4 0.6
v -0.7 0.2 0.3
v -0.7 0.4 0.3
v -0.5 0.2 0.3
v -0.5 0.4 0.3
v -1.7 0 0.1
v -1.7 0.6 0.1
v -1.6 0 0.1
v -1.6 0.6 0.1
v -1.5 0 0.1
v -1.5 0.6 0.1
v -1 0 0.1
v -1 0.6 0.1
v -0.9 0 0.1
v -0.9 0.6 0.1
v -0.7 0 0.1
v -0.7 0.6 0.1
v -1.7 0 0.9
v -1.6 0 0.9
v -1.5 0 0.9
v -1 0 0.9
v -0.9 0 0.9
v -0.7 0 0.9
v -1.7 0 0.1
v -1.6 0 0.1
v -1.5 0 0.1
v -1 0 0.1
v -0.9 0 0.1
v -0.7 0 0.1
v -0.7 0.2 0.7
v -0.5 0.2 0.7
v -0.7 0.2 0.6
v -0.6 0.2 0.6
v -0.7 0.2 0.4
v -0.6 0.2 0.4
v -0.7 0.2 0.3
v -0.5 0.2 0.3
v -0.7 0.4 0.7
v -0.5 0.4 0.7
v -0.7 0.4 0.6
v -0.6 0.4 0.6
v -0.7 0.4 0.4
v -0.6 0.4 0.4
v -0.7 0.4 0.3
v -0.5 0.4 0.3
v -1.7 0.6 0.9
v -1.6 0.6 0.9
v -1.5 0.6 0.9
v -1 0.6 0.9
v -0.9 0.6 0.9
v -0.7 0.6 0.9
v -1.7 0.6 0.1
v -1.6 0.6 0.1
v -1.5 0.6 0.1
v -1 0.6 0.1
v -0.9 0.6 0.1
v -0.7 0.6 0.1

# faces
f 3/2/1 2/2/1 1/2/1
f 4/2/1 2/2/1 3/2/1
f 7/3/1 6/3/1 5/3/1
f 8/3/1 6/3/1 7/3/1
f 9/2/2 10/2/2 11/2/2
f 11/2/2 10/2/2 12/2/2
f 11/1/2 12/1/2 13/1/2
f 13/1/2 12/1/2 14/1/2
f 14/1/2 12/1/2 15/1/2
f 15/1/2 12/1/2 16/1/2
f 11/1/2 13/1/2 17/1/2
f 14/1/2 15/1/2 18/1/2
f 18/1/2 15/1/2 19/1/2
f 16/1/2 12/1/2 20/1/2
f 9/2/2 11/2/2 21/2/2
f 19/1/2 20/1/2 21/1/2
f 18/1/2 19/1/2 21/1/2
f 11/1/2 17/1/2 21/1/2
f 17/1/2 18/1/2 21/1/2
f 20/1/2 12/1/2 22/1/2
f 21/1/2 20/1/2 22/1/2
f 12/2/2 10/2/2 22/2/2
f 9/2/2 21/2/2 23/2/2
f 21/2/2 22/2/2 23/2/2
f 22/2/2 10/2/2 24/2/2
f 23/2/2 22/2/2 24/2/2
f 25/3/2 26/3/2 27/3/2
f 27/3/2 26/3/2 28/3/2
f 31/2/3 30/2/3 29/2/3
f 32/2/3 30/2/3 31/2/3
f 33/3/3 32/3/3 31/3/3
f 34/3/3 32/3/3 33/3/3
f 35/2/3 34/2/3 33/2/3
f 36/2/3 34/2/3 35/2/3
f 37/3/3 36/3/3 35/3/3
f 38/3/3 36/3/3 37/3/3
f 39/2/3 38/2/3 37/2/3
f 40/2/3 38/2/3 39/2/3
f 43/3/3 42/3/3 41/3/3
f 44/3/3 42/3/3 43/3/3
f 47/3/3 46/3/3 45/3/3
f 48/3/3 46/3/3 47/3/3
f 49/3/4 50/3/4 51/3/4
f 51/3/4 50/3/4 52/3/4
f 53/3/4 54/3/4 55/3/4
f 55/3/4 54/3/4 56/3/4
f 57/2/4 58/2/4 59/2/4
f 59/2/4 58/2/4 60/2/4
f 59/3/4 60/3/4 61/3/4
f 61/3/4 60/3/4 62/3/4
f 61/2/4 62/2/4 63/2/4
f 63/2/4 62/2/4 64/2/4
f 63/3/4 64/3/4 65/3/4
f 65/3/4 64/3/4 66/3/4
f 65/2/4 66/2/4 67/2/4
f 67/2/4 66/2/4 68/2/4
f 75/2/5 70/2/5 69/2/5
f 76/3/5 71/3/5 70/3/5
f 76/2/5 70/2/5 75/2/5
f 77/2/5 72/2/5 71/2/5
f 77/3/5 71/3/5 76/3/5
f 78/3/5 73/3/5 72/3/5
f 78/2/5 72/2/5 77/2/5
f 79/2/5 74/2/5 73/2/5
f 79/3/5 73/3/5 78/3/5
f 80/2/5 74/2/5 79/2/5
f 83/3/5 82/3/5 81/3/5
f 84/3/5 82/3/5 83/3/5
f 86/3/5 82/3/5 84/3/5
f 87/3/5 86/3/5 85/3/5
f 88/3/5 82/3/5 86/3/5
f 88/3/5 86/3/5 87/3/5
f 89/3/6 90/3/6 91/3/6
f 91/3/6 90/3/6 92/3/6
f 92/3/6 90/3/6 94/3/6
f 93/3/6 94/3/6 95/3/6
f 94/3/6 90/3/6 96/3/6
f 95/3/6 94/3/6 96/3/6
f 97/2/6 98/2/6 103/2/6
f 98/3/6 99/3/6 104/3/6
f 103/2/6 98/2/6 104/2/6
f 99/2/6 100/2/6 105/2/6
f 104/3/6 99/3/6 105/3/6
f 100/3/6 101/3/6 106/3/6
f 105/2/6 100/2/6 106/2/6
f 101/2/6 102/2/6 107/2/6
f 106/3/6 101/3/6 107/3/6
f 107/2/6 102/2/6 108/2/6
