# MagicaVoxel @ Ephtracy

# group
o 

# material
mtllib Painting1.mtl
usemtl palette

# normals
vn -1 0 0
vn 1 0 0
vn 0 0 1
vn 0 0 -1
vn 0 -1 0
vn 0 1 0

# texcoords
vt 0.00195313 0.5
vt 0.0136719 0.5
vt 0.0175781 0.5
vt 0.0214844 0.5
vt 0.0253906 0.5
vt 0.0292969 0.5
vt 0.0332031 0.5
vt 0.0371094 0.5
vt 0.0410156 0.5

# verts
v -1.1 1.4 -1.8
v -1.1 1.4 -2
v -1.1 3.4 -1.8
v -1.1 3.4 -2
v 1.4 1.6 -1.8
v 1.4 1.6 -1.9
v 1.4 1.9 -1.9
v 1.4 2.3 -1.9
v 1.4 2.5 -1.9
v 1.4 2.6 -1.9
v 1.4 2.7 -1.9
v 1.4 3.2 -1.8
v 1.4 3.2 -1.9
v -0.9 1.6 -1.8
v -0.9 1.6 -1.9
v -0.9 1.9 -1.9
v -0.9 2.3 -1.9
v -0.9 2.5 -1.9
v -0.9 2.6 -1.9
v -0.9 2.7 -1.9
v -0.9 3.2 -1.8
v -0.9 3.2 -1.9
v 1.6 1.4 -1.8
v 1.6 1.4 -2
v 1.6 3.4 -1.8
v 1.6 3.4 -2
v -1.1 1.4 -1.8
v -1.1 3.4 -1.8
v -0.9 1.6 -1.8
v -0.9 3.2 -1.8
v 1.4 1.6 -1.8
v 1.4 3.2 -1.8
v 1.6 1.4 -1.8
v 1.6 3.4 -1.8
v -0.9 1.6 -1.9
v -0.9 1.9 -1.9
v -0.9 2.3 -1.9
v -0.9 2.5 -1.9
v -0.9 2.6 -1.9
v -0.9 2.7 -1.9
v -0.9 3.2 -1.9
v -0.2 2.3 -1.9
v -0.2 2.4 -1.9
v -0.1 2.4 -1.9
v -0.1 2.5 -1.9
v 0 2.3 -1.9
v 0 2.4 -1.9
v 0 2.5 -1.9
v 0 2.6 -1.9
v 0.1 2.4 -1.9
v 0.1 2.5 -1.9
v 0.4 2.4 -1.9
v 0.4 2.5 -1.9
v 0.5 2.3 -1.9
v 0.5 2.4 -1.9
v 0.5 2.5 -1.9
v 0.5 2.6 -1.9
v 0.6 2.4 -1.9
v 0.6 2.5 -1.9
v 0.7 2.3 -1.9
v 0.7 2.4 -1.9
v 1.4 1.6 -1.9
v 1.4 1.9 -1.9
v 1.4 2.3 -1.9
v 1.4 2.5 -1.9
v 1.4 2.6 -1.9
v 1.4 2.7 -1.9
v 1.4 3.2 -1.9
v -1.1 1.4 -2
v -1.1 3.4 -2
v -0.9 1.6 -2
v -0.9 1.9 -2
v -0.9 2.3 -2
v -0.9 2.5 -2
v -0.9 2.6 -2
v -0.9 2.7 -2
v -0.9 3.2 -2
v -0.2 2.3 -2
v -0.2 2.4 -2
v -0.1 2.4 -2
v -0.1 2.5 -2
v 0 2.3 -2
v 0 2.4 -2
v 0 2.5 -2
v 0 2.6 -2
v 0.1 2.4 -2
v 0.1 2.5 -2
v 0.4 2.4 -2
v 0.4 2.5 -2
v 0.5 2.3 -2
v 0.5 2.4 -2
v 0.5 2.5 -2
v 0.5 2.6 -2
v 0.6 2.4 -2
v 0.6 2.5 -2
v 0.7 2.3 -2
v 0.7 2.4 -2
v 1.4 1.6 -2
v 1.4 1.9 -2
v 1.4 2.3 -2
v 1.4 2.5 -2
v 1.4 2.6 -2
v 1.4 2.7 -2
v 1.4 3.2 -2
v 1.6 1.4 -2
v 1.6 3.4 -2
v -1.1 1.4 -1.8
v 1.6 1.4 -1.8
v -1.1 1.4 -2
v 1.6 1.4 -2
v -0.9 3.2 -1.8
v 1.4 3.2 -1.8
v -0.9 3.2 -1.9
v 1.4 3.2 -1.9
v -0.9 1.6 -1.8
v 1.4 1.6 -1.8
v -0.9 1.6 -1.9
v 1.4 1.6 -1.9
v -1.1 3.4 -1.8
v 1.6 3.4 -1.8
v -1.1 3.4 -2
v 1.6 3.4 -2

# faces
f 3/1/1 2/1/1 1/1/1
f 4/1/1 2/1/1 3/1/1
f 7/1/1 6/1/1 5/1/1
f 8/1/1 7/1/1 5/1/1
f 9/1/1 8/1/1 5/1/1
f 10/1/1 9/1/1 5/1/1
f 11/1/1 10/1/1 5/1/1
f 12/1/1 11/1/1 5/1/1
f 13/1/1 11/1/1 12/1/1
f 14/1/2 15/1/2 16/1/2
f 14/1/2 16/1/2 17/1/2
f 14/1/2 17/1/2 18/1/2
f 14/1/2 18/1/2 19/1/2
f 14/1/2 19/1/2 20/1/2
f 14/1/2 20/1/2 21/1/2
f 21/1/2 20/1/2 22/1/2
f 23/1/2 24/1/2 25/1/2
f 25/1/2 24/1/2 26/1/2
f 29/1/3 28/1/3 27/1/3
f 30/1/3 28/1/3 29/1/3
f 31/1/3 29/1/3 27/1/3
f 32/1/3 28/1/3 30/1/3
f 33/1/3 31/1/3 27/1/3
f 33/1/3 32/1/3 31/1/3
f 34/1/3 28/1/3 32/1/3
f 34/1/3 32/1/3 33/1/3
f 42/3/3 37/3/3 36/3/3
f 42/2/3 38/2/3 37/2/3
f 43/2/3 38/2/3 42/2/3
f 44/6/3 43/6/3 42/6/3
f 44/2/3 38/2/3 43/2/3
f 45/7/3 39/7/3 38/7/3
f 45/2/3 38/2/3 44/2/3
f 46/6/3 44/6/3 42/6/3
f 46/3/3 42/3/3 36/3/3
f 46/6/3 45/6/3 44/6/3
f 47/6/3 45/6/3 46/6/3
f 48/7/3 39/7/3 45/7/3
f 48/6/3 45/6/3 47/6/3
f 49/8/3 40/8/3 39/8/3
f 49/7/3 39/7/3 48/7/3
f 50/6/3 48/6/3 47/6/3
f 50/5/3 47/5/3 46/5/3
f 50/6/3 49/6/3 48/6/3
f 51/6/3 49/6/3 50/6/3
f 52/5/3 50/5/3 46/5/3
f 52/5/3 51/5/3 50/5/3
f 53/6/3 49/6/3 51/6/3
f 53/5/3 51/5/3 52/5/3
f 54/3/3 46/3/3 36/3/3
f 54/5/3 52/5/3 46/5/3
f 55/6/3 53/6/3 52/6/3
f 55/5/3 52/5/3 54/5/3
f 56/6/3 49/6/3 53/6/3
f 56/6/3 53/6/3 55/6/3
f 57/8/3 40/8/3 49/8/3
f 57/6/3 49/6/3 56/6/3
f 58/6/3 56/6/3 55/6/3
f 58/6/3 55/6/3 54/6/3
f 59/7/3 57/7/3 56/7/3
f 59/6/3 56/6/3 58/6/3
f 60/6/3 58/6/3 54/6/3
f 60/3/3 54/3/3 36/3/3
f 61/2/3 59/2/3 58/2/3
f 61/6/3 58/6/3 60/6/3
f 62/4/3 36/4/3 35/4/3
f 63/3/3 60/3/3 36/3/3
f 63/4/3 36/4/3 62/4/3
f 64/2/3 61/2/3 60/2/3
f 64/3/3 60/3/3 63/3/3
f 65/2/3 59/2/3 61/2/3
f 65/2/3 61/2/3 64/2/3
f 65/7/3 57/7/3 59/7/3
f 66/8/3 40/8/3 57/8/3
f 66/7/3 57/7/3 65/7/3
f 67/9/3 41/9/3 40/9/3
f 67/8/3 40/8/3 66/8/3
f 68/9/3 41/9/3 67/9/3
f 69/1/4 70/1/4 71/1/4
f 71/1/4 70/1/4 72/1/4
f 72/1/4 70/1/4 73/1/4
f 73/1/4 70/1/4 74/1/4
f 74/1/4 70/1/4 75/1/4
f 75/1/4 70/1/4 76/1/4
f 76/1/4 70/1/4 77/1/4
f 72/3/4 73/3/4 78/3/4
f 73/2/4 74/2/4 78/2/4
f 78/2/4 74/2/4 79/2/4
f 78/6/4 79/6/4 80/6/4
f 79/2/4 74/2/4 80/2/4
f 74/7/4 75/7/4 81/7/4
f 80/2/4 74/2/4 81/2/4
f 78/6/4 80/6/4 82/6/4
f 72/3/4 78/3/4 82/3/4
f 80/6/4 81/6/4 82/6/4
f 82/6/4 81/6/4 83/6/4
f 81/7/4 75/7/4 84/7/4
f 83/6/4 81/6/4 84/6/4
f 75/8/4 76/8/4 85/8/4
f 84/7/4 75/7/4 85/7/4
f 82/5/4 83/5/4 86/5/4
f 83/6/4 84/6/4 86/6/4
f 84/6/4 85/6/4 86/6/4
f 86/6/4 85/6/4 87/6/4
f 82/5/4 86/5/4 88/5/4
f 86/5/4 87/5/4 88/5/4
f 87/6/4 85/6/4 89/6/4
f 88/5/4 87/5/4 89/5/4
f 72/3/4 82/3/4 90/3/4
f 82/5/4 88/5/4 90/5/4
f 88/6/4 89/6/4 91/6/4
f 90/5/4 88/5/4 91/5/4
f 89/6/4 85/6/4 92/6/4
f 91/6/4 89/6/4 92/6/4
f 85/8/4 76/8/4 93/8/4
f 92/6/4 85/6/4 93/6/4
f 91/6/4 92/6/4 94/6/4
f 90/6/4 91/6/4 94/6/4
f 92/7/4 93/7/4 95/7/4
f 94/6/4 92/6/4 95/6/4
f 90/6/4 94/6/4 96/6/4
f 72/3/4 90/3/4 96/3/4
f 94/2/4 95/2/4 97/2/4
f 96/6/4 94/6/4 97/6/4
f 69/1/4 71/1/4 98/1/4
f 71/4/4 72/4/4 98/4/4
f 72/3/4 96/3/4 99/3/4
f 98/4/4 72/4/4 99/4/4
f 96/2/4 97/2/4 100/2/4
f 99/3/4 96/3/4 100/3/4
f 97/2/4 95/2/4 101/2/4
f 100/2/4 97/2/4 101/2/4
f 95/7/4 93/7/4 101/7/4
f 93/8/4 76/8/4 102/8/4
f 101/7/4 93/7/4 102/7/4
f 76/9/4 77/9/4 103/9/4
f 102/8/4 76/8/4 103/8/4
f 77/1/4 70/1/4 104/1/4
f 103/9/4 77/9/4 104/9/4
f 99/1/4 100/1/4 105/1/4
f 98/1/4 99/1/4 105/1/4
f 103/1/4 104/1/4 105/1/4
f 69/1/4 98/1/4 105/1/4
f 100/1/4 101/1/4 105/1/4
f 101/1/4 102/1/4 105/1/4
f 102/1/4 103/1/4 105/1/4
f 104/1/4 70/1/4 106/1/4
f 105/1/4 104/1/4 106/1/4
f 109/1/5 108/1/5 107/1/5
f 110/1/5 108/1/5 109/1/5
f 113/1/5 112/1/5 111/1/5
f 114/1/5 112/1/5 113/1/5
f 115/1/6 116/1/6 117/1/6
f 117/1/6 116/1/6 118/1/6
f 119/1/6 120/1/6 121/1/6
f 121/1/6 120/1/6 122/1/6
