# MagicaVoxel @ Ephtracy

# group
o 

# material
mtllib Stool.mtl
usemtl palette

# normals
vn -1 0 0
vn 1 0 0
vn 0 0 1
vn 0 0 -1
vn 0 -1 0
vn 0 1 0

# texcoords
vt 0.189453 0.5
vt 0.193359 0.5
vt 0.197266 0.5
vt 0.201172 0.5

# verts
v -1.3 1.3 1.2
v -1.3 1.3 0.3
v -1.3 1.4 1.2
v -1.3 1.4 0.3
v -1.2 0 1.2
v -1.2 0 1.1
v -1.2 0 1
v -1.2 0 0.5
v -1.2 0 0.4
v -1.2 0 0.3
v -1.2 0.5 1
v -1.2 0.5 0.5
v -1.2 0.6 1
v -1.2 0.6 0.5
v -1.2 0.7 1
v -1.2 0.7 0.5
v -1.2 1.3 1.3
v -1.2 1.3 1.2
v -1.2 1.3 1.1
v -1.2 1.3 1
v -1.2 1.3 0.5
v -1.2 1.3 0.4
v -1.2 1.3 0.3
v -1.2 1.3 0.2
v -1.2 1.4 1.3
v -1.2 1.4 1.2
v -1.2 1.4 0.3
v -1.2 1.4 0.2
v -0.5 0 1.2
v -0.5 0 1.1
v -0.5 0 1
v -0.5 0 0.5
v -0.5 0 0.4
v -0.5 0 0.3
v -0.5 0.5 1
v -0.5 0.5 0.5
v -0.5 0.7 1
v -0.5 0.7 0.5
v -0.5 1.3 1.2
v -0.5 1.3 1.1
v -0.5 1.3 1
v -0.5 1.3 0.5
v -0.5 1.3 0.4
v -0.5 1.3 0.3
v -1 0 1.2
v -1 0 1.1
v -1 0 1
v -1 0 0.5
v -1 0 0.4
v -1 0 0.3
v -1 0.5 1
v -1 0.5 0.5
v -1 0.7 1
v -1 0.7 0.5
v -1 1.3 1.2
v -1 1.3 1.1
v -1 1.3 1
v -1 1.3 0.5
v -1 1.3 0.4
v -1 1.3 0.3
v -0.3 0 1.2
v -0.3 0 1.1
v -0.3 0 1
v -0.3 0 0.5
v -0.3 0 0.4
v -0.3 0 0.3
v -0.3 0.5 1
v -0.3 0.5 0.5
v -0.3 0.6 1
v -0.3 0.6 0.5
v -0.3 0.7 1
v -0.3 0.7 0.5
v -0.3 1.3 1.3
v -0.3 1.3 1.2
v -0.3 1.3 1.1
v -0.3 1.3 1
v -0.3 1.3 0.5
v -0.3 1.3 0.4
v -0.3 1.3 0.3
v -0.3 1.3 0.2
v -0.3 1.4 1.3
v -0.3 1.4 1.2
v -0.3 1.4 0.3
v -0.3 1.4 0.2
v -0.2 1.3 1.2
v -0.2 1.3 0.3
v -0.2 1.4 1.2
v -0.2 1.4 0.3
v -1.2 1.3 1.3
v -1.2 1.4 1.3
v -0.3 1.3 1.3
v -0.3 1.4 1.3
v -1.3 1.3 1.2
v -1.3 1.4 1.2
v -1.2 0 1.2
v -1.2 1.3 1.2
v -1.2 1.4 1.2
v -1.1 0 1.2
v -1.1 1.3 1.2
v -1 0 1.2
v -1 1.3 1.2
v -0.5 0 1.2
v -0.5 1.3 1.2
v -0.4 0 1.2
v -0.4 1.3 1.2
v -0.3 0 1.2
v -0.3 1.3 1.2
v -0.3 1.4 1.2
v -0.2 1.3 1.2
v -0.2 1.4 1.2
v -1.2 0 0.5
v -1.2 0.5 0.5
v -1.2 0.7 0.5
v -1.2 1.3 0.5
v -1.1 0 0.5
v -1.1 0.5 0.5
v -1.1 0.7 0.5
v -1.1 1.3 0.5
v -1 0 0.5
v -1 0.5 0.5
v -1 0.7 0.5
v -1 1.3 0.5
v -0.5 0 0.5
v -0.5 0.5 0.5
v -0.5 0.7 0.5
v -0.5 1.3 0.5
v -0.4 0 0.5
v -0.4 0.5 0.5
v -0.4 0.7 0.5
v -0.4 1.3 0.5
v -0.3 0 0.5
v -0.3 0.5 0.5
v -0.3 0.7 0.5
v -0.3 1.3 0.5
v -1.2 0 1
v -1.2 0.5 1
v -1.2 0.7 1
v -1.2 1.3 1
v -1.1 0 1
v -1.1 0.5 1
v -1.1 0.7 1
v -1.1 1.3 1
v -1 0 1
v -1 0.5 1
v -1 0.7 1
v -1 1.3 1
v -0.5 0 1
v -0.5 0.5 1
v -0.5 0.7 1
v -0.5 1.3 1
v -0.4 0 1
v -0.4 0.5 1
v -0.4 0.7 1
v -0.4 1.3 1
v -0.3 0 1
v -0.3 0.5 1
v -0.3 0.7 1
v -0.3 1.3 1
v -1.3 1.3 0.3
v -1.3 1.4 0.3
v -1.2 0 0.3
v -1.2 1.3 0.3
v -1.2 1.4 0.3
v -1.1 0 0.3
v -1.1 1.3 0.3
v -1 0 0.3
v -1 1.3 0.3
v -0.5 0 0.3
v -0.5 1.3 0.3
v -0.4 0 0.3
v -0.4 1.3 0.3
v -0.3 0 0.3
v -0.3 1.3 0.3
v -0.3 1.4 0.3
v -0.2 1.3 0.3
v -0.2 1.4 0.3
v -1.2 1.3 0.2
v -1.2 1.4 0.2
v -0.3 1.3 0.2
v -0.3 1.4 0.2
v -1.2 0 1.2
v -1.1 0 1.2
v -1 0 1.2
v -0.5 0 1.2
v -0.4 0 1.2
v -0.3 0 1.2
v -1.2 0 1.1
v -1.1 0 1.1
v -1 0 1.1
v -0.5 0 1.1
v -0.4 0 1.1
v -0.3 0 1.1
v -1.2 0 1
v -1.1 0 1
v -1 0 1
v -0.5 0 1
v -0.4 0 1
v -0.3 0 1
v -1.2 0 0.5
v -1.1 0 0.5
v -1 0 0.5
v -0.5 0 0.5
v -0.4 0 0.5
v -0.3 0 0.5
v -1.2 0 0.4
v -1.1 0 0.4
v -1 0 0.4
v -0.5 0 0.4
v -0.4 0 0.4
v -0.3 0 0.4
v -1.2 0 0.3
v -1.1 0 0.3
v -1 0 0.3
v -0.5 0 0.3
v -0.4 0 0.3
v -0.3 0 0.3
v -1.2 0.5 1
v -1.1 0.5 1
v -1 0.5 1
v -0.5 0.5 1
v -0.4 0.5 1
v -0.3 0.5 1
v -1.2 0.5 0.5
v -1.1 0.5 0.5
v -1 0.5 0.5
v -0.5 0.5 0.5
v -0.4 0.5 0.5
v -0.3 0.5 0.5
v -1.2 1.3 1.3
v -0.3 1.3 1.3
v -1.3 1.3 1.2
v -1.2 1.3 1.2
v -1.1 1.3 1.2
v -1 1.3 1.2
v -0.5 1.3 1.2
v -0.4 1.3 1.2
v -0.3 1.3 1.2
v -0.2 1.3 1.2
v -1.2 1.3 1.1
v -1 1.3 1.1
v -0.5 1.3 1.1
v -0.3 1.3 1.1
v -1.2 1.3 1
v -1.1 1.3 1
v -1 1.3 1
v -0.5 1.3 1
v -0.4 1.3 1
v -0.3 1.3 1
v -0.9 1.3 0.9
v -0.6 1.3 0.9
v -0.9 1.3 0.6
v -0.6 1.3 0.6
v -1.2 1.3 0.5
v -1.1 1.3 0.5
v -1 1.3 0.5
v -0.5 1.3 0.5
v -0.4 1.3 0.5
v -0.3 1.3 0.5
v -1.2 1.3 0.4
v -1 1.3 0.4
v -0.5 1.3 0.4
v -0.3 1.3 0.4
v -1.3 1.3 0.3
v -1.2 1.3 0.3
v -1.1 1.3 0.3
v -1 1.3 0.3
v -0.5 1.3 0.3
v -0.4 1.3 0.3
v -0.3 1.3 0.3
v -0.2 1.3 0.3
v -1.2 1.3 0.2
v -0.3 1.3 0.2
v -1.2 0.7 1
v -1.1 0.7 1
v -1 0.7 1
v -0.5 0.7 1
v -0.4 0.7 1
v -0.3 0.7 1
v -1.2 0.7 0.5
v -1.1 0.7 0.5
v -1 0.7 0.5
v -0.5 0.7 0.5
v -0.4 0.7 0.5
v -0.3 0.7 0.5
v -1.2 1.4 1.3
v -0.3 1.4 1.3
v -1.3 1.4 1.2
v -1.2 1.4 1.2
v -0.3 1.4 1.2
v -0.2 1.4 1.2
v -1 1.4 1.1
v -0.5 1.4 1.1
v -1.1 1.4 1
v -1 1.4 1
v -0.5 1.4 1
v -0.4 1.4 1
v -0.9 1.4 0.9
v -0.6 1.4 0.9
v -0.9 1.4 0.6
v -0.6 1.4 0.6
v -1.1 1.4 0.5
v -1 1.4 0.5
v -0.5 1.4 0.5
v -0.4 1.4 0.5
v -1 1.4 0.4
v -0.5 1.4 0.4
v -1.3 1.4 0.3
v -1.2 1.4 0.3
v -0.3 1.4 0.3
v -0.2 1.4 0.3
v -1.2 1.4 0.2
v -0.3 1.4 0.2

# faces
f 3/1/1 2/1/1 1/1/1
f 4/1/1 2/1/1 3/1/1
f 11/2/1 7/2/1 6/2/1
f 12/2/1 9/2/1 8/2/1
f 13/2/1 11/2/1 6/2/1
f 13/1/1 12/1/1 11/1/1
f 14/2/1 9/2/1 12/2/1
f 14/1/1 12/1/1 13/1/1
f 15/2/1 13/2/1 6/2/1
f 15/2/1 14/2/1 13/2/1
f 16/2/1 9/2/1 14/2/1
f 16/2/1 14/2/1 15/2/1
f 18/3/1 6/3/1 5/3/1
f 19/2/1 15/2/1 6/2/1
f 19/3/1 6/3/1 18/3/1
f 20/2/1 15/2/1 19/2/1
f 21/2/1 9/2/1 16/2/1
f 22/3/1 10/3/1 9/3/1
f 22/2/1 9/2/1 21/2/1
f 23/3/1 10/3/1 22/3/1
f 25/1/1 18/1/1 17/1/1
f 26/1/1 18/1/1 25/1/1
f 27/1/1 24/1/1 23/1/1
f 28/1/1 24/1/1 27/1/1
f 35/1/1 31/1/1 30/1/1
f 36/1/1 33/1/1 32/1/1
f 37/1/1 35/1/1 30/1/1
f 37/1/1 36/1/1 35/1/1
f 38/1/1 33/1/1 36/1/1
f 38/1/1 36/1/1 37/1/1
f 39/2/1 30/2/1 29/2/1
f 40/1/1 37/1/1 30/1/1
f 40/2/1 30/2/1 39/2/1
f 41/1/1 37/1/1 40/1/1
f 42/1/1 33/1/1 38/1/1
f 43/2/1 34/2/1 33/2/1
f 43/1/1 33/1/1 42/1/1
f 44/2/1 34/2/1 43/2/1
f 46/1/2 47/1/2 51/1/2
f 48/1/2 49/1/2 52/1/2
f 46/1/2 51/1/2 53/1/2
f 51/1/2 52/1/2 53/1/2
f 52/1/2 49/1/2 54/1/2
f 53/1/2 52/1/2 54/1/2
f 45/2/2 46/2/2 55/2/2
f 46/1/2 53/1/2 56/1/2
f 55/2/2 46/2/2 56/2/2
f 56/1/2 53/1/2 57/1/2
f 54/1/2 49/1/2 58/1/2
f 49/2/2 50/2/2 59/2/2
f 58/1/2 49/1/2 59/1/2
f 59/2/2 50/2/2 60/2/2
f 62/2/2 63/2/2 67/2/2
f 64/2/2 65/2/2 68/2/2
f 62/2/2 67/2/2 69/2/2
f 67/1/2 68/1/2 69/1/2
f 68/2/2 65/2/2 70/2/2
f 69/1/2 68/1/2 70/1/2
f 62/2/2 69/2/2 71/2/2
f 69/2/2 70/2/2 71/2/2
f 70/2/2 65/2/2 72/2/2
f 71/2/2 70/2/2 72/2/2
f 61/3/2 62/3/2 74/3/2
f 62/2/2 71/2/2 75/2/2
f 74/3/2 62/3/2 75/3/2
f 75/2/2 71/2/2 76/2/2
f 72/2/2 65/2/2 77/2/2
f 65/3/2 66/3/2 78/3/2
f 77/2/2 65/2/2 78/2/2
f 78/3/2 66/3/2 79/3/2
f 73/1/2 74/1/2 81/1/2
f 81/1/2 74/1/2 82/1/2
f 79/1/2 80/1/2 83/1/2
f 83/1/2 80/1/2 84/1/2
f 85/1/2 86/1/2 87/1/2
f 87/1/2 86/1/2 88/1/2
f 91/1/3 90/1/3 89/1/3
f 92/1/3 90/1/3 91/1/3
f 96/1/3 94/1/3 93/1/3
f 97/1/3 94/1/3 96/1/3
f 98/3/3 96/3/3 95/3/3
f 99/3/3 96/3/3 98/3/3
f 100/2/3 99/2/3 98/2/3
f 101/2/3 99/2/3 100/2/3
f 104/2/3 103/2/3 102/2/3
f 105/2/3 103/2/3 104/2/3
f 106/3/3 105/3/3 104/3/3
f 107/3/3 105/3/3 106/3/3
f 109/1/3 108/1/3 107/1/3
f 110/1/3 108/1/3 109/1/3
f 115/2/3 112/2/3 111/2/3
f 116/2/3 112/2/3 115/2/3
f 117/2/3 114/2/3 113/2/3
f 118/2/3 114/2/3 117/2/3
f 119/1/3 116/1/3 115/1/3
f 120/1/3 116/1/3 119/1/3
f 121/1/3 118/1/3 117/1/3
f 122/1/3 118/1/3 121/1/3
f 127/1/3 124/1/3 123/1/3
f 128/1/3 124/1/3 127/1/3
f 129/1/3 126/1/3 125/1/3
f 130/1/3 126/1/3 129/1/3
f 131/2/3 128/2/3 127/2/3
f 132/2/3 128/2/3 131/2/3
f 133/2/3 130/2/3 129/2/3
f 134/2/3 130/2/3 133/2/3
f 135/2/4 136/2/4 139/2/4
f 139/2/4 136/2/4 140/2/4
f 137/2/4 138/2/4 141/2/4
f 141/2/4 138/2/4 142/2/4
f 139/1/4 140/1/4 143/1/4
f 143/1/4 140/1/4 144/1/4
f 141/1/4 142/1/4 145/1/4
f 145/1/4 142/1/4 146/1/4
f 147/1/4 148/1/4 151/1/4
f 151/1/4 148/1/4 152/1/4
f 149/1/4 150/1/4 153/1/4
f 153/1/4 150/1/4 154/1/4
f 151/2/4 152/2/4 155/2/4
f 155/2/4 152/2/4 156/2/4
f 153/2/4 154/2/4 157/2/4
f 157/2/4 154/2/4 158/2/4
f 159/1/4 160/1/4 162/1/4
f 162/1/4 160/1/4 163/1/4
f 161/3/4 162/3/4 164/3/4
f 164/3/4 162/3/4 165/3/4
f 164/2/4 165/2/4 166/2/4
f 166/2/4 165/2/4 167/2/4
f 168/2/4 169/2/4 170/2/4
f 170/2/4 169/2/4 171/2/4
f 170/3/4 171/3/4 172/3/4
f 172/3/4 171/3/4 173/3/4
f 173/1/4 174/1/4 175/1/4
f 175/1/4 174/1/4 176/1/4
f 177/1/4 178/1/4 179/1/4
f 179/1/4 178/1/4 180/1/4
f 187/3/5 182/3/5 181/3/5
f 188/2/5 183/2/5 182/2/5
f 188/3/5 182/3/5 187/3/5
f 189/2/5 183/2/5 188/2/5
f 190/2/5 185/2/5 184/2/5
f 191/3/5 186/3/5 185/3/5
f 191/2/5 185/2/5 190/2/5
f 192/3/5 186/3/5 191/3/5
f 193/2/5 188/2/5 187/2/5
f 194/1/5 189/1/5 188/1/5
f 194/2/5 188/2/5 193/2/5
f 195/1/5 189/1/5 194/1/5
f 196/1/5 191/1/5 190/1/5
f 197/2/5 192/2/5 191/2/5
f 197/1/5 191/1/5 196/1/5
f 198/2/5 192/2/5 197/2/5
f 205/2/5 200/2/5 199/2/5
f 206/1/5 201/1/5 200/1/5
f 206/2/5 200/2/5 205/2/5
f 207/1/5 201/1/5 206/1/5
f 208/1/5 203/1/5 202/1/5
f 209/2/5 204/2/5 203/2/5
f 209/1/5 203/1/5 208/1/5
f 210/2/5 204/2/5 209/2/5
f 211/3/5 206/3/5 205/3/5
f 212/2/5 207/2/5 206/2/5
f 212/3/5 206/3/5 211/3/5
f 213/2/5 207/2/5 212/2/5
f 214/2/5 209/2/5 208/2/5
f 215/3/5 210/3/5 209/3/5
f 215/2/5 209/2/5 214/2/5
f 216/3/5 210/3/5 215/3/5
f 223/1/5 218/1/5 217/1/5
f 223/1/5 219/1/5 218/1/5
f 224/1/5 219/1/5 223/1/5
f 225/1/5 219/1/5 224/1/5
f 226/1/5 222/1/5 221/1/5
f 226/1/5 221/1/5 220/1/5
f 227/1/5 222/1/5 226/1/5
f 228/1/5 222/1/5 227/1/5
f 232/1/5 230/1/5 229/1/5
f 233/1/5 230/1/5 232/1/5
f 234/1/5 230/1/5 233/1/5
f 235/1/5 230/1/5 234/1/5
f 236/1/5 230/1/5 235/1/5
f 237/1/5 230/1/5 236/1/5
f 239/1/5 232/1/5 231/1/5
f 240/1/5 235/1/5 234/1/5
f 241/1/5 235/1/5 240/1/5
f 242/1/5 238/1/5 237/1/5
f 243/1/5 239/1/5 231/1/5
f 245/2/5 241/2/5 240/2/5
f 246/2/5 241/2/5 245/2/5
f 248/1/5 238/1/5 242/1/5
f 249/3/5 246/3/5 245/3/5
f 250/3/5 246/3/5 249/3/5
f 251/3/5 249/3/5 245/3/5
f 251/4/5 250/4/5 249/4/5
f 252/3/5 246/3/5 250/3/5
f 252/4/5 250/4/5 251/4/5
f 253/1/5 244/1/5 243/1/5
f 253/1/5 243/1/5 231/1/5
f 254/2/5 245/2/5 244/2/5
f 254/1/5 244/1/5 253/1/5
f 255/3/5 252/3/5 251/3/5
f 255/2/5 245/2/5 254/2/5
f 255/3/5 251/3/5 245/3/5
f 256/3/5 246/3/5 252/3/5
f 256/3/5 252/3/5 255/3/5
f 256/2/5 247/2/5 246/2/5
f 257/1/5 248/1/5 247/1/5
f 257/2/5 247/2/5 256/2/5
f 258/1/5 238/1/5 248/1/5
f 258/1/5 248/1/5 257/1/5
f 259/1/5 253/1/5 231/1/5
f 260/2/5 256/2/5 255/2/5
f 261/2/5 256/2/5 260/2/5
f 262/1/5 238/1/5 258/1/5
f 263/1/5 259/1/5 231/1/5
f 264/1/5 259/1/5 263/1/5
f 266/1/5 261/1/5 260/1/5
f 267/1/5 261/1/5 266/1/5
f 269/1/5 238/1/5 262/1/5
f 270/1/5 238/1/5 269/1/5
f 271/1/5 265/1/5 264/1/5
f 271/1/5 268/1/5 267/1/5
f 271/1/5 269/1/5 268/1/5
f 271/1/5 267/1/5 266/1/5
f 271/1/5 266/1/5 265/1/5
f 272/1/5 269/1/5 271/1/5
f 273/2/6 274/2/6 279/2/6
f 274/1/6 275/1/6 280/1/6
f 279/2/6 274/2/6 280/2/6
f 280/1/6 275/1/6 281/1/6
f 276/1/6 277/1/6 282/1/6
f 277/2/6 278/2/6 283/2/6
f 282/1/6 277/1/6 283/1/6
f 283/2/6 278/2/6 284/2/6
f 285/1/6 286/1/6 288/1/6
f 288/1/6 286/1/6 289/1/6
f 287/1/6 288/1/6 291/1/6
f 289/1/6 290/1/6 291/1/6
f 288/1/6 289/1/6 291/1/6
f 291/1/6 290/1/6 292/1/6
f 287/1/6 291/1/6 293/1/6
f 291/2/6 292/2/6 294/2/6
f 293/1/6 291/1/6 294/1/6
f 292/1/6 290/1/6 295/1/6
f 294/2/6 292/2/6 295/2/6
f 295/1/6 290/1/6 296/1/6
f 294/3/6 295/3/6 297/3/6
f 297/3/6 295/3/6 298/3/6
f 294/3/6 297/3/6 299/3/6
f 297/4/6 298/4/6 299/4/6
f 298/3/6 295/3/6 300/3/6
f 299/4/6 298/4/6 300/4/6
f 293/2/6 294/2/6 301/2/6
f 287/1/6 293/1/6 301/1/6
f 299/3/6 300/3/6 302/3/6
f 301/2/6 294/2/6 302/2/6
f 294/3/6 299/3/6 302/3/6
f 300/3/6 295/3/6 303/3/6
f 302/3/6 300/3/6 303/3/6
f 295/2/6 296/2/6 303/2/6
f 296/1/6 290/1/6 304/1/6
f 303/2/6 296/2/6 304/2/6
f 301/1/6 302/1/6 305/1/6
f 302/2/6 303/2/6 305/2/6
f 303/1/6 304/1/6 306/1/6
f 305/2/6 303/2/6 306/2/6
f 287/1/6 301/1/6 307/1/6
f 301/1/6 305/1/6 307/1/6
f 305/1/6 306/1/6 307/1/6
f 307/1/6 306/1/6 308/1/6
f 304/1/6 290/1/6 309/1/6
f 308/1/6 306/1/6 309/1/6
f 306/1/6 304/1/6 309/1/6
f 309/1/6 290/1/6 310/1/6
f 308/1/6 309/1/6 311/1/6
f 311/1/6 309/1/6 312/1/6
