# MagicaVoxel @ Ephtracy

# group
o 

# material
mtllib Towels.mtl
usemtl palette

# normals
vn -1 0 0
vn 1 0 0
vn 0 0 1
vn 0 0 -1
vn 0 -1 0
vn 0 1 0

# texcoords
vt 0.958984 0.5
vt 0.962891 0.5

# verts
v -0.7 0 0.6
v -0.7 0 -0.6
v -0.7 0.1 0.6
v -0.7 0.1 0.5
v -0.7 0.1 -0.5
v -0.7 0.2 0.6
v -0.7 0.2 0.5
v -0.7 0.2 -0.5
v -0.7 0.3 0.5
v -0.7 0.3 -0.5
v -0.7 0.3 -0.6
v -0.7 0.4 0.5
v -0.7 0.4 -0.5
v -0.7 0.4 -0.6
v -0.7 0.5 0.6
v -0.7 0.5 -0.6
v 0.6 0 0.6
v 0.6 0 -0.6
v 0.6 0.1 0.6
v 0.6 0.1 0.5
v 0.6 0.1 -0.5
v 0.6 0.2 0.6
v 0.6 0.2 0.5
v 0.6 0.2 -0.5
v 0.6 0.3 0.5
v 0.6 0.3 -0.5
v 0.6 0.3 -0.6
v 0.6 0.4 0.5
v 0.6 0.4 -0.5
v 0.6 0.4 -0.6
v 0.6 0.5 0.6
v 0.6 0.5 -0.6
v -0.7 0 0.6
v -0.7 0.1 0.6
v -0.7 0.2 0.6
v -0.7 0.5 0.6
v -0.4 0.3 0.6
v -0.4 0.4 0.6
v -0.3 0.3 0.6
v -0.3 0.4 0.6
v -0.1 0.3 0.6
v -0.1 0.4 0.6
v 0.1 0.3 0.6
v 0.1 0.4 0.6
v 0.6 0 0.6
v 0.6 0.1 0.6
v 0.6 0.2 0.6
v 0.6 0.5 0.6
v -0.7 0.1 0.5
v -0.7 0.2 0.5
v -0.6 0.1 0.5
v -0.6 0.2 0.5
v 0.5 0.1 0.5
v 0.5 0.2 0.5
v 0.6 0.1 0.5
v 0.6 0.2 0.5
v -0.7 0.3 -0.5
v -0.7 0.4 -0.5
v -0.6 0.3 -0.5
v -0.6 0.4 -0.5
v 0.5 0.3 -0.5
v 0.5 0.4 -0.5
v 0.6 0.3 -0.5
v 0.6 0.4 -0.5
v -0.7 0 -0.6
v -0.7 0.3 -0.6
v -0.7 0.4 -0.6
v -0.7 0.5 -0.6
v -0.2 0.1 -0.6
v -0.2 0.2 -0.6
v -0.1 0.1 -0.6
v -0.1 0.2 -0.6
v 0.2 0 -0.6
v 0.2 0.1 -0.6
v 0.3 0 -0.6
v 0.3 0.1 -0.6
v 0.6 0 -0.6
v 0.6 0.3 -0.6
v 0.6 0.4 -0.6
v 0.6 0.5 -0.6
v -0.7 0 0.6
v 0.6 0 0.6
v 0.2 0 -0.5
v 0.3 0 -0.5
v -0.7 0 -0.6
v 0.2 0 -0.6
v 0.3 0 -0.6
v 0.6 0 -0.6
v -0.7 0.2 0.6
v 0.6 0.2 0.6
v -0.7 0.2 0.5
v -0.6 0.2 0.5
v 0.5 0.2 0.5
v 0.6 0.2 0.5
v -0.7 0.4 -0.5
v -0.6 0.4 -0.5
v 0.5 0.4 -0.5
v 0.6 0.4 -0.5
v -0.7 0.4 -0.6
v 0.6 0.4 -0.6
v -0.7 0.1 0.6
v 0.6 0.1 0.6
v -0.7 0.1 0.5
v -0.6 0.1 0.5
v 0.5 0.1 0.5
v 0.6 0.1 0.5
v -0.7 0.3 -0.5
v -0.6 0.3 -0.5
v 0.5 0.3 -0.5
v 0.6 0.3 -0.5
v -0.7 0.3 -0.6
v 0.6 0.3 -0.6
v -0.7 0.5 0.6
v 0.6 0.5 0.6
v -0.5 0.5 0.4
v -0.4 0.5 0.4
v 0.3 0.5 0.4
v 0.4 0.5 0.4
v -0.5 0.5 0.0999999
v -0.4 0.5 0.0999999
v -0.1 0.5 0.0999999
v 5.96046e-08 0.5 0.0999999
v 0.3 0.5 -0.2
v 0.4 0.5 -0.2
v -0.1 0.5 -0.3
v 5.96046e-08 0.5 -0.3
v -0.7 0.5 -0.6
v 0.6 0.5 -0.6

# faces
f 3/2/1 2/2/1 1/2/1
f 4/2/1 2/2/1 3/2/1
f 5/2/1 2/2/1 4/2/1
f 7/1/1 5/1/1 4/1/1
f 8/2/1 2/2/1 5/2/1
f 8/1/1 5/1/1 7/1/1
f 9/2/1 7/2/1 6/2/1
f 9/2/1 8/2/1 7/2/1
f 10/2/1 2/2/1 8/2/1
f 10/2/1 8/2/1 9/2/1
f 11/2/1 2/2/1 10/2/1
f 12/2/1 9/2/1 6/2/1
f 12/1/1 10/1/1 9/1/1
f 13/1/1 10/1/1 12/1/1
f 15/2/1 12/2/1 6/2/1
f 15/2/1 14/2/1 13/2/1
f 15/2/1 13/2/1 12/2/1
f 16/2/1 14/2/1 15/2/1
f 17/2/2 18/2/2 19/2/2
f 19/2/2 18/2/2 20/2/2
f 20/2/2 18/2/2 21/2/2
f 20/1/2 21/1/2 23/1/2
f 21/2/2 18/2/2 24/2/2
f 23/1/2 21/1/2 24/1/2
f 22/2/2 23/2/2 25/2/2
f 23/2/2 24/2/2 25/2/2
f 24/2/2 18/2/2 26/2/2
f 25/2/2 24/2/2 26/2/2
f 26/2/2 18/2/2 27/2/2
f 22/2/2 25/2/2 28/2/2
f 25/1/2 26/1/2 28/1/2
f 28/1/2 26/1/2 29/1/2
f 22/2/2 28/2/2 31/2/2
f 29/2/2 30/2/2 31/2/2
f 28/2/2 29/2/2 31/2/2
f 31/2/2 30/2/2 32/2/2
f 37/2/3 36/2/3 35/2/3
f 38/2/3 36/2/3 37/2/3
f 39/2/3 37/2/3 35/2/3
f 39/1/3 38/1/3 37/1/3
f 40/2/3 36/2/3 38/2/3
f 40/1/3 38/1/3 39/1/3
f 41/2/3 39/2/3 35/2/3
f 41/2/3 40/2/3 39/2/3
f 42/2/3 36/2/3 40/2/3
f 42/2/3 40/2/3 41/2/3
f 43/2/3 41/2/3 35/2/3
f 43/1/3 42/1/3 41/1/3
f 44/2/3 36/2/3 42/2/3
f 44/1/3 42/1/3 43/1/3
f 45/2/3 34/2/3 33/2/3
f 46/2/3 34/2/3 45/2/3
f 47/2/3 43/2/3 35/2/3
f 47/2/3 44/2/3 43/2/3
f 48/2/3 36/2/3 44/2/3
f 48/2/3 44/2/3 47/2/3
f 51/1/3 50/1/3 49/1/3
f 52/1/3 50/1/3 51/1/3
f 53/2/3 52/2/3 51/2/3
f 54/2/3 52/2/3 53/2/3
f 55/1/3 54/1/3 53/1/3
f 56/1/3 54/1/3 55/1/3
f 57/1/4 58/1/4 59/1/4
f 59/1/4 58/1/4 60/1/4
f 59/2/4 60/2/4 61/2/4
f 61/2/4 60/2/4 62/2/4
f 61/1/4 62/1/4 63/1/4
f 63/1/4 62/1/4 64/1/4
f 65/2/4 66/2/4 69/2/4
f 69/2/4 66/2/4 70/2/4
f 65/2/4 69/2/4 71/2/4
f 69/1/4 70/1/4 71/1/4
f 70/2/4 66/2/4 72/2/4
f 71/1/4 70/1/4 72/1/4
f 65/2/4 71/2/4 73/2/4
f 71/2/4 72/2/4 73/2/4
f 73/2/4 72/2/4 74/2/4
f 73/1/4 74/1/4 75/1/4
f 74/2/4 72/2/4 76/2/4
f 75/1/4 74/1/4 76/1/4
f 75/2/4 76/2/4 77/2/4
f 72/2/4 66/2/4 78/2/4
f 77/2/4 76/2/4 78/2/4
f 76/2/4 72/2/4 78/2/4
f 67/2/4 68/2/4 79/2/4
f 79/2/4 68/2/4 80/2/4
f 83/2/5 82/2/5 81/2/5
f 84/2/5 82/2/5 83/2/5
f 85/2/5 83/2/5 81/2/5
f 86/1/5 84/1/5 83/1/5
f 86/2/5 83/2/5 85/2/5
f 87/2/5 82/2/5 84/2/5
f 87/1/5 84/1/5 86/1/5
f 88/2/5 82/2/5 87/2/5
f 91/2/5 90/2/5 89/2/5
f 92/2/5 90/2/5 91/2/5
f 93/2/5 90/2/5 92/2/5
f 94/2/5 90/2/5 93/2/5
f 99/2/5 96/2/5 95/2/5
f 99/2/5 98/2/5 97/2/5
f 99/2/5 97/2/5 96/2/5
f 100/2/5 98/2/5 99/2/5
f 101/2/6 102/2/6 103/2/6
f 103/2/6 102/2/6 104/2/6
f 104/2/6 102/2/6 105/2/6
f 105/2/6 102/2/6 106/2/6
f 107/2/6 108/2/6 111/2/6
f 109/2/6 110/2/6 111/2/6
f 108/2/6 109/2/6 111/2/6
f 111/2/6 110/2/6 112/2/6
f 113/2/6 114/2/6 115/2/6
f 115/2/6 114/2/6 116/2/6
f 116/2/6 114/2/6 117/2/6
f 117/2/6 114/2/6 118/2/6
f 113/2/6 115/2/6 119/2/6
f 115/1/6 116/1/6 119/1/6
f 116/2/6 117/2/6 120/2/6
f 119/1/6 116/1/6 120/1/6
f 120/2/6 117/2/6 121/2/6
f 121/2/6 117/2/6 122/2/6
f 117/1/6 118/1/6 123/1/6
f 122/2/6 117/2/6 123/2/6
f 118/2/6 114/2/6 124/2/6
f 123/1/6 118/1/6 124/1/6
f 121/1/6 122/1/6 125/1/6
f 119/2/6 120/2/6 125/2/6
f 120/2/6 121/2/6 125/2/6
f 122/2/6 123/2/6 126/2/6
f 125/1/6 122/1/6 126/1/6
f 123/2/6 124/2/6 126/2/6
f 119/2/6 125/2/6 127/2/6
f 113/2/6 119/2/6 127/2/6
f 125/2/6 126/2/6 127/2/6
f 126/2/6 124/2/6 128/2/6
f 127/2/6 126/2/6 128/2/6
f 124/2/6 114/2/6 128/2/6
