# MagicaVoxel @ Ephtracy

# group
o 

# material
mtllib TrashCan Empty.mtl
usemtl palette

# normals
vn -1 0 0
vn 1 0 0
vn 0 0 1
vn 0 0 -1
vn 0 -1 0
vn 0 1 0

# texcoords
vt 0.982422 0.5
vt 0.986328 0.5

# verts
v -1 0 0.5
v -1 0 0.4
v -1 0 0.2
v -1 0 0.0999999
v -1 2.2 0.5
v -1 2.2 0.4
v -1 2.2 0.2
v -1 2.2 0.0999999
v -0.9 0 0.7
v -0.9 0 0.6
v -0.9 0 0.5
v -0.9 0 0.0999999
v -0.9 0 -1.19209e-07
v -0.9 0 -0.1
v -0.9 2.2 0.7
v -0.9 2.2 0.6
v -0.9 2.2 0.5
v -0.9 2.2 0.0999999
v -0.9 2.2 -1.19209e-07
v -0.9 2.2 -0.1
v -0.8 0 0.9
v -0.8 0 0.7
v -0.8 0 -0.1
v -0.8 0 -0.3
v -0.8 2.2 0.9
v -0.8 2.2 0.7
v -0.8 2.2 -0.1
v -0.8 2.2 -0.3
v -0.7 0 1
v -0.7 0 0.9
v -0.7 0 -0.3
v -0.7 0 -0.4
v -0.7 2.2 1
v -0.7 2.2 0.9
v -0.7 2.2 -0.3
v -0.7 2.2 -0.4
v -0.5 0 1.1
v -0.5 0 1
v -0.5 0 -0.4
v -0.5 0 -0.5
v -0.5 2.2 1.1
v -0.5 2.2 1
v -0.5 2.2 -0.4
v -0.5 2.2 -0.5
v -0.3 0 1.2
v -0.3 0 1.1
v -0.3 0 -0.5
v -0.3 0 -0.6
v -0.3 2.2 1.2
v -0.3 2.2 1.1
v -0.3 2.2 -0.5
v -0.3 2.2 -0.6
v 0.2 0.6 1
v 0.2 0.6 0.9
v 0.2 0.6 -0.3
v 0.2 0.6 -0.4
v 0.2 2.1 1
v 0.2 2.1 -0.4
v 0.2 2.2 1
v 0.2 2.2 0.9
v 0.2 2.2 -0.3
v 0.2 2.2 -0.4
v 0.4 0.6 0.9
v 0.4 0.6 0.8
v 0.4 0.6 -0.2
v 0.4 0.6 -0.3
v 0.4 2.2 0.9
v 0.4 2.2 0.8
v 0.4 2.2 -0.2
v 0.4 2.2 -0.3
v 0.5 0.6 0.8
v 0.5 0.6 0.7
v 0.5 0.6 -0.1
v 0.5 0.6 -0.2
v 0.5 2.2 0.8
v 0.5 2.2 0.7
v 0.5 2.2 -0.1
v 0.5 2.2 -0.2
v 0.6 0.6 0.7
v 0.6 0.6 0.6
v 0.6 0.6 0.0999999
v 0.6 0.6 -0.1
v 0.6 0.8 0.6
v 0.6 0.8 0.5
v 0.6 2.2 0.7
v 0.6 2.2 0.5
v 0.6 2.2 0.0999999
v 0.6 2.2 -0.1
v 0.7 0.6 0.6
v 0.7 0.6 0.5
v 0.7 0.6 0.0999999
v 0.7 0.8 0.6
v 0.7 0.8 0.5
v 0.7 2.1 0.5
v 0.7 2.1 0.0999999
v 0.7 2.2 0.5
v 0.7 2.2 0.0999999
v -0.8 0.6 0.5
v -0.8 0.6 0.0999999
v -0.8 2.1 0.5
v -0.8 2.1 0.0999999
v -0.8 2.2 0.5
v -0.8 2.2 0.0999999
v -0.7 0.6 0.7
v -0.7 0.6 0.5
v -0.7 0.6 0.0999999
v -0.7 0.6 -0.1
v -0.7 2.2 0.7
v -0.7 2.2 0.5
v -0.7 2.2 0.0999999
v -0.7 2.2 -0.1
v -0.6 0.6 0.8
v -0.6 0.6 0.7
v -0.6 0.6 -0.1
v -0.6 0.6 -0.2
v -0.6 2.2 0.8
v -0.6 2.2 0.7
v -0.6 2.2 -0.1
v -0.6 2.2 -0.2
v -0.5 0.6 0.9
v -0.5 0.6 0.8
v -0.5 0.6 -0.2
v -0.5 0.6 -0.3
v -0.5 2.2 0.9
v -0.5 2.2 0.8
v -0.5 2.2 -0.2
v -0.5 2.2 -0.3
v -0.3 0.6 1
v -0.3 0.6 0.9
v -0.3 0.6 -0.3
v -0.3 0.6 -0.4
v -0.3 2.1 1
v -0.3 2.2 1
v -0.3 2.2 0.9
v -0.3 2.2 -0.3
v -0.3 2.2 -0.4
v 0.2 0 1.2
v 0.2 0 1.1
v 0.2 0 -0.5
v 0.2 0 -0.6
v 0.2 2.2 1.2
v 0.2 2.2 1.1
v 0.2 2.2 -0.5
v 0.2 2.2 -0.6
v 0.4 0 1.1
v 0.4 0 1
v 0.4 0 -0.4
v 0.4 0 -0.5
v 0.4 2.2 1.1
v 0.4 2.2 1
v 0.4 2.2 -0.4
v 0.4 2.2 -0.5
v 0.6 0 1
v 0.6 0 0.9
v 0.6 0 -0.3
v 0.6 0 -0.4
v 0.6 2.2 1
v 0.6 2.2 0.9
v 0.6 2.2 -0.3
v 0.6 2.2 -0.4
v 0.7 0 0.9
v 0.7 0 0.7
v 0.7 0 -0.1
v 0.7 0 -0.3
v 0.7 2.2 0.9
v 0.7 2.2 0.7
v 0.7 2.2 -0.1
v 0.7 2.2 -0.3
v 0.8 0 0.7
v 0.8 0 0.6
v 0.8 0 0.5
v 0.8 0 0.0999999
v 0.8 0 -1.19209e-07
v 0.8 0 -0.1
v 0.8 2.2 0.7
v 0.8 2.2 0.6
v 0.8 2.2 0.5
v 0.8 2.2 0.0999999
v 0.8 2.2 -1.19209e-07
v 0.8 2.2 -0.1
v 0.9 0 0.5
v 0.9 0 0.4
v 0.9 0 0.2
v 0.9 0 0.0999999
v 0.9 2.2 0.5
v 0.9 2.2 0.4
v 0.9 2.2 0.2
v 0.9 2.2 0.0999999
v -0.3 0 1.2
v -0.3 2.2 1.2
v -0.0999999 0.1 1.2
v -0.0999999 2.2 1.2
v 1.19209e-07 0.1 1.2
v 1.19209e-07 2.2 1.2
v 0.2 0 1.2
v 0.2 2.2 1.2
v -0.5 0 1.1
v -0.5 2.2 1.1
v -0.4 0 1.1
v -0.4 2.2 1.1
v -0.3 0 1.1
v -0.3 2.2 1.1
v 0.2 0 1.1
v 0.2 2.2 1.1
v 0.3 0 1.1
v 0.3 2.2 1.1
v 0.4 0 1.1
v 0.4 2.2 1.1
v -0.7 0 1
v -0.7 2.2 1
v -0.5 0 1
v -0.5 2.2 1
v 0.4 0 1
v 0.4 2.2 1
v 0.6 0 1
v 0.6 2.2 1
v -0.8 0 0.9
v -0.8 2.2 0.9
v -0.7 0 0.9
v -0.7 2.2 0.9
v 0.6 0 0.9
v 0.6 2.2 0.9
v 0.7 0 0.9
v 0.7 2.2 0.9
v -0.9 0 0.7
v -0.9 2.2 0.7
v -0.8 0 0.7
v -0.8 2.2 0.7
v 0.7 0 0.7
v 0.7 2.2 0.7
v 0.8 0 0.7
v 0.8 2.2 0.7
v -1 0 0.5
v -1 2.2 0.5
v -0.9 0 0.5
v -0.9 2.2 0.5
v 0.8 0 0.5
v 0.8 2.2 0.5
v 0.9 0 0.5
v 0.9 2.2 0.5
v -0.8 0.6 0.0999999
v -0.8 2.1 0.0999999
v -0.8 2.2 0.0999999
v -0.7 0.6 0.0999999
v -0.7 2.2 0.0999999
v 0.6 0.6 0.0999999
v 0.6 2.2 0.0999999
v 0.7 0.6 0.0999999
v 0.7 2.1 0.0999999
v 0.7 2.2 0.0999999
v -0.7 0.6 -0.1
v -0.7 2.2 -0.1
v -0.6 0.6 -0.1
v -0.6 2.2 -0.1
v 0.5 0.6 -0.1
v 0.5 2.2 -0.1
v 0.6 0.6 -0.1
v 0.6 2.2 -0.1
v -0.6 0.6 -0.2
v -0.6 2.2 -0.2
v -0.5 0.6 -0.2
v -0.5 2.2 -0.2
v 0.4 0.6 -0.2
v 0.4 2.2 -0.2
v 0.5 0.6 -0.2
v 0.5 2.2 -0.2
v -0.5 0.6 -0.3
v -0.5 2.2 -0.3
v -0.3 0.6 -0.3
v -0.3 2.2 -0.3
v 0.2 0.6 -0.3
v 0.2 2.2 -0.3
v 0.4 0.6 -0.3
v 0.4 2.2 -0.3
v -0.3 0.6 -0.4
v -0.3 2.2 -0.4
v -0.2 0.6 -0.4
v -0.2 2.1 -0.4
v 0.2 0.6 -0.4
v 0.2 2.1 -0.4
v 0.2 2.2 -0.4
v -0.3 0.6 1
v -0.3 2.1 1
v -0.3 2.2 1
v 0.2 0.6 1
v 0.2 2.1 1
v 0.2 2.2 1
v -0.5 0.6 0.9
v -0.5 2.2 0.9
v -0.3 0.6 0.9
v -0.3 2.2 0.9
v 0.2 0.6 0.9
v 0.2 2.2 0.9
v 0.4 0.6 0.9
v 0.4 2.2 0.9
v -0.6 0.6 0.8
v -0.6 2.2 0.8
v -0.5 0.6 0.8
v -0.5 2.2 0.8
v 0.4 0.6 0.8
v 0.4 2.2 0.8
v 0.5 0.6 0.8
v 0.5 2.2 0.8
v -0.7 0.6 0.7
v -0.7 2.2 0.7
v -0.6 0.6 0.7
v -0.6 2.2 0.7
v 0.5 0.6 0.7
v 0.5 2.2 0.7
v 0.6 0.6 0.7
v 0.6 2.2 0.7
v 0.6 0.6 0.6
v 0.6 0.8 0.6
v 0.7 0.6 0.6
v 0.7 0.8 0.6
v -0.8 0.6 0.5
v -0.8 2.1 0.5
v -0.8 2.2 0.5
v -0.7 0.6 0.5
v -0.7 2.2 0.5
v 0.6 0.8 0.5
v 0.6 2.2 0.5
v 0.7 0.8 0.5
v 0.7 2.1 0.5
v 0.7 2.2 0.5
v -1 0 0.0999999
v -1 2.2 0.0999999
v -0.9 0 0.0999999
v -0.9 2.2 0.0999999
v 0.8 0 0.0999999
v 0.8 2.2 0.0999999
v 0.9 0 0.0999999
v 0.9 2.2 0.0999999
v -0.9 0 -0.1
v -0.9 2.2 -0.1
v -0.8 0 -0.1
v -0.8 2.2 -0.1
v 0.7 0 -0.1
v 0.7 2.2 -0.1
v 0.8 0 -0.1
v 0.8 2.2 -0.1
v -0.8 0 -0.3
v -0.8 2.2 -0.3
v -0.7 0 -0.3
v -0.7 2.2 -0.3
v 0.6 0 -0.3
v 0.6 2.2 -0.3
v 0.7 0 -0.3
v 0.7 2.2 -0.3
v -0.7 0 -0.4
v -0.7 2.2 -0.4
v -0.5 0 -0.4
v -0.5 2.2 -0.4
v 0.4 0 -0.4
v 0.4 2.2 -0.4
v 0.6 0 -0.4
v 0.6 2.2 -0.4
v -0.5 0 -0.5
v -0.5 2.2 -0.5
v -0.4 0 -0.5
v -0.4 2.2 -0.5
v -0.3 0 -0.5
v -0.3 2.2 -0.5
v 0.2 0 -0.5
v 0.2 2.2 -0.5
v 0.3 0 -0.5
v 0.3 2.2 -0.5
v 0.4 0 -0.5
v 0.4 2.2 -0.5
v -0.3 0 -0.6
v -0.3 2.2 -0.6
v -0.0999999 0 -0.6
v -0.0999999 2.2 -0.6
v 1.19209e-07 0 -0.6
v 1.19209e-07 2.2 -0.6
v 0.2 0 -0.6
v 0.2 2.2 -0.6
v -0.3 0 1.2
v 0.2 0 1.2
v -0.5 0 1.1
v -0.4 0 1.1
v -0.3 0 1.1
v 0.2 0 1.1
v 0.3 0 1.1
v 0.4 0 1.1
v -0.7 0 1
v -0.5 0 1
v -0.4 0 1
v -0.3 0 1
v 0.2 0 1
v 0.3 0 1
v 0.4 0 1
v 0.6 0 1
v -0.8 0 0.9
v -0.7 0 0.9
v 0.6 0 0.9
v 0.7 0 0.9
v -0.9 0 0.7
v -0.8 0 0.7
v 0.7 0 0.7
v 0.8 0 0.7
v -0.9 0 0.6
v -0.8 0 0.6
v 0.7 0 0.6
v 0.8 0 0.6
v -1 0 0.5
v -0.9 0 0.5
v -0.8 0 0.5
v 0.7 0 0.5
v 0.8 0 0.5
v 0.9 0 0.5
v -1 0 0.4
v -0.9 0 0.4
v 0.8 0 0.4
v 0.9 0 0.4
v -1 0 0.2
v -0.9 0 0.2
v 0.8 0 0.2
v 0.9 0 0.2
v -1 0 0.0999999
v -0.9 0 0.0999999
v -0.8 0 0.0999999
v 0.7 0 0.0999999
v 0.8 0 0.0999999
v 0.9 0 0.0999999
v -0.9 0 -1.19209e-07
v -0.8 0 -1.19209e-07
v 0.7 0 -1.19209e-07
v 0.8 0 -1.19209e-07
v -0.9 0 -0.1
v -0.8 0 -0.1
v 0.7 0 -0.1
v 0.8 0 -0.1
v -0.8 0 -0.3
v -0.7 0 -0.3
v 0.6 0 -0.3
v 0.7 0 -0.3
v -0.7 0 -0.4
v -0.5 0 -0.4
v -0.4 0 -0.4
v -0.2 0 -0.4
v 0.2 0 -0.4
v 0.3 0 -0.4
v 0.4 0 -0.4
v 0.6 0 -0.4
v -0.5 0 -0.5
v -0.4 0 -0.5
v -0.3 0 -0.5
v -0.2 0 -0.5
v -0.0999999 0 -0.5
v 1.19209e-07 0 -0.5
v 0.2 0 -0.5
v 0.3 0 -0.5
v 0.4 0 -0.5
v -0.3 0 -0.6
v -0.0999999 0 -0.6
v 1.19209e-07 0 -0.6
v 0.2 0 -0.6
v 0.6 0.8 0.6
v 0.7 0.8 0.6
v 0.6 0.8 0.5
v 0.7 0.8 0.5
v -0.3 0.6 1
v 0.2 0.6 1
v -0.5 0.6 0.9
v -0.3 0.6 0.9
v 0.2 0.6 0.9
v 0.4 0.6 0.9
v -0.6 0.6 0.8
v -0.5 0.6 0.8
v 0.4 0.6 0.8
v 0.5 0.6 0.8
v -0.7 0.6 0.7
v -0.6 0.6 0.7
v 0.5 0.6 0.7
v 0.6 0.6 0.7
v 0.6 0.6 0.6
v 0.7 0.6 0.6
v -0.8 0.6 0.5
v -0.7 0.6 0.5
v 0.7 0.6 0.5
v -0.8 0.6 0.0999999
v -0.7 0.6 0.0999999
v 0.6 0.6 0.0999999
v 0.7 0.6 0.0999999
v -0.7 0.6 -0.1
v -0.6 0.6 -0.1
v 0.5 0.6 -0.1
v 0.6 0.6 -0.1
v -0.6 0.6 -0.2
v -0.5 0.6 -0.2
v 0.4 0.6 -0.2
v 0.5 0.6 -0.2
v -0.5 0.6 -0.3
v -0.3 0.6 -0.3
v 0.2 0.6 -0.3
v 0.4 0.6 -0.3
v -0.3 0.6 -0.4
v -0.2 0.6 -0.4
v 0.2 0.6 -0.4
v -0.3 2.2 1.2
v -0.0999999 2.2 1.2
v 1.19209e-07 2.2 1.2
v 0.2 2.2 1.2
v -0.5 2.2 1.1
v -0.4 2.2 1.1
v -0.3 2.2 1.1
v -0.0999999 2.2 1.1
v 1.19209e-07 2.2 1.1
v 0.2 2.2 1.1
v 0.3 2.2 1.1
v 0.4 2.2 1.1
v -0.7 2.2 1
v -0.5 2.2 1
v -0.4 2.2 1
v -0.3 2.2 1
v 0.2 2.2 1
v 0.3 2.2 1
v 0.4 2.2 1
v 0.6 2.2 1
v -0.8 2.2 0.9
v -0.7 2.2 0.9
v -0.5 2.2 0.9
v -0.3 2.2 0.9
v 0.2 2.2 0.9
v 0.4 2.2 0.9
v 0.6 2.2 0.9
v 0.7 2.2 0.9
v -0.6 2.2 0.8
v -0.5 2.2 0.8
v 0.4 2.2 0.8
v 0.5 2.2 0.8
v -0.9 2.2 0.7
v -0.8 2.2 0.7
v -0.7 2.2 0.7
v -0.6 2.2 0.7
v 0.5 2.2 0.7
v 0.6 2.2 0.7
v 0.7 2.2 0.7
v 0.8 2.2 0.7
v -0.9 2.2 0.6
v -0.8 2.2 0.6
v 0.7 2.2 0.6
v 0.8 2.2 0.6
v -1 2.2 0.5
v -0.9 2.2 0.5
v -0.8 2.2 0.5
v -0.7 2.2 0.5
v 0.6 2.2 0.5
v 0.7 2.2 0.5
v 0.8 2.2 0.5
v 0.9 2.2 0.5
v -1 2.2 0.4
v -0.9 2.2 0.4
v 0.8 2.2 0.4
v 0.9 2.2 0.4
v -1 2.2 0.2
v -0.9 2.2 0.2
v 0.8 2.2 0.2
v 0.9 2.2 0.2
v -1 2.2 0.0999999
v -0.9 2.2 0.0999999
v -0.8 2.2 0.0999999
v -0.7 2.2 0.0999999
v 0.6 2.2 0.0999999
v 0.7 2.2 0.0999999
v 0.8 2.2 0.0999999
v 0.9 2.2 0.0999999
v -0.9 2.2 -1.19209e-07
v -0.8 2.2 -1.19209e-07
v 0.7 2.2 -1.19209e-07
v 0.8 2.2 -1.19209e-07
v -0.9 2.2 -0.1
v -0.8 2.2 -0.1
v -0.7 2.2 -0.1
v -0.6 2.2 -0.1
v 0.5 2.2 -0.1
v 0.6 2.2 -0.1
v 0.7 2.2 -0.1
v 0.8 2.2 -0.1
v -0.6 2.2 -0.2
v -0.5 2.2 -0.2
v 0.4 2.2 -0.2
v 0.5 2.2 -0.2
v -0.8 2.2 -0.3
v -0.7 2.2 -0.3
v -0.5 2.2 -0.3
v -0.3 2.2 -0.3
v 0.2 2.2 -0.3
v 0.4 2.2 -0.3
v 0.6 2.2 -0.3
v 0.7 2.2 -0.3
v -0.7 2.2 -0.4
v -0.5 2.2 -0.4
v -0.4 2.2 -0.4
v -0.3 2.2 -0.4
v 0.2 2.2 -0.4
v 0.3 2.2 -0.4
v 0.4 2.2 -0.4
v 0.6 2.2 -0.4
v -0.5 2.2 -0.5
v -0.4 2.2 -0.5
v -0.3 2.2 -0.5
v -0.0999999 2.2 -0.5
v 1.19209e-07 2.2 -0.5
v 0.2 2.2 -0.5
v 0.3 2.2 -0.5
v 0.4 2.2 -0.5
v -0.3 2.2 -0.6
v -0.0999999 2.2 -0.6
v 1.19209e-07 2.2 -0.6
v 0.2 2.2 -0.6

# faces
f 5/2/1 2/2/1 1/2/1
f 6/1/1 3/1/1 2/1/1
f 6/2/1 2/2/1 5/2/1
f 7/2/1 4/2/1 3/2/1
f 7/1/1 3/1/1 6/1/1
f 8/2/1 4/2/1 7/2/1
f 15/2/1 10/2/1 9/2/1
f 16/1/1 11/1/1 10/1/1
f 16/2/1 10/2/1 15/2/1
f 17/1/1 11/1/1 16/1/1
f 18/1/1 13/1/1 12/1/1
f 19/2/1 14/2/1 13/2/1
f 19/1/1 13/1/1 18/1/1
f 20/2/1 14/2/1 19/2/1
f 25/2/1 22/2/1 21/2/1
f 26/2/1 22/2/1 25/2/1
f 27/2/1 24/2/1 23/2/1
f 28/2/1 24/2/1 27/2/1
f 33/2/1 30/2/1 29/2/1
f 34/2/1 30/2/1 33/2/1
f 35/2/1 32/2/1 31/2/1
f 36/2/1 32/2/1 35/2/1
f 41/2/1 38/2/1 37/2/1
f 42/2/1 38/2/1 41/2/1
f 43/2/1 40/2/1 39/2/1
f 44/2/1 40/2/1 43/2/1
f 49/2/1 46/2/1 45/2/1
f 50/2/1 46/2/1 49/2/1
f 51/2/1 48/2/1 47/2/1
f 52/2/1 48/2/1 51/2/1
f 57/2/1 54/2/1 53/2/1
f 58/2/1 56/2/1 55/2/1
f 59/2/1 54/2/1 57/2/1
f 60/2/1 54/2/1 59/2/1
f 61/2/1 58/2/1 55/2/1
f 62/2/1 58/2/1 61/2/1
f 67/2/1 64/2/1 63/2/1
f 68/2/1 64/2/1 67/2/1
f 69/2/1 66/2/1 65/2/1
f 70/2/1 66/2/1 69/2/1
f 75/2/1 72/2/1 71/2/1
f 76/2/1 72/2/1 75/2/1
f 77/2/1 74/2/1 73/2/1
f 78/2/1 74/2/1 77/2/1
f 83/2/1 80/2/1 79/2/1
f 85/2/1 83/2/1 79/2/1
f 85/2/1 84/2/1 83/2/1
f 86/2/1 84/2/1 85/2/1
f 87/2/1 82/2/1 81/2/1
f 88/2/1 82/2/1 87/2/1
f 92/1/1 90/1/1 89/1/1
f 93/2/1 91/2/1 90/2/1
f 93/1/1 90/1/1 92/1/1
f 94/2/1 91/2/1 93/2/1
f 95/2/1 91/2/1 94/2/1
f 96/1/1 95/1/1 94/1/1
f 97/1/1 95/1/1 96/1/1
f 98/2/2 99/2/2 100/2/2
f 100/2/2 99/2/2 101/2/2
f 100/1/2 101/1/2 102/1/2
f 102/1/2 101/1/2 103/1/2
f 104/2/2 105/2/2 108/2/2
f 108/2/2 105/2/2 109/2/2
f 106/2/2 107/2/2 110/2/2
f 110/2/2 107/2/2 111/2/2
f 112/2/2 113/2/2 116/2/2
f 116/2/2 113/2/2 117/2/2
f 114/2/2 115/2/2 118/2/2
f 118/2/2 115/2/2 119/2/2
f 120/2/2 121/2/2 124/2/2
f 124/2/2 121/2/2 125/2/2
f 122/2/2 123/2/2 126/2/2
f 126/2/2 123/2/2 127/2/2
f 128/2/2 129/2/2 132/2/2
f 132/2/2 129/2/2 133/2/2
f 133/2/2 129/2/2 134/2/2
f 130/2/2 131/2/2 135/2/2
f 135/2/2 131/2/2 136/2/2
f 137/2/2 138/2/2 141/2/2
f 141/2/2 138/2/2 142/2/2
f 139/2/2 140/2/2 143/2/2
f 143/2/2 140/2/2 144/2/2
f 145/2/2 146/2/2 149/2/2
f 149/2/2 146/2/2 150/2/2
f 147/2/2 148/2/2 151/2/2
f 151/2/2 148/2/2 152/2/2
f 153/2/2 154/2/2 157/2/2
f 157/2/2 154/2/2 158/2/2
f 155/2/2 156/2/2 159/2/2
f 159/2/2 156/2/2 160/2/2
f 161/2/2 162/2/2 165/2/2
f 165/2/2 162/2/2 166/2/2
f 163/2/2 164/2/2 167/2/2
f 167/2/2 164/2/2 168/2/2
f 169/2/2 170/2/2 175/2/2
f 170/1/2 171/1/2 176/1/2
f 175/2/2 170/2/2 176/2/2
f 176/1/2 171/1/2 177/1/2
f 172/1/2 173/1/2 178/1/2
f 173/2/2 174/2/2 179/2/2
f 178/1/2 173/1/2 179/1/2
f 179/2/2 174/2/2 180/2/2
f 181/2/2 182/2/2 185/2/2
f 182/1/2 183/1/2 186/1/2
f 185/2/2 182/2/2 186/2/2
f 183/2/2 184/2/2 187/2/2
f 186/1/2 183/1/2 187/1/2
f 187/2/2 184/2/2 188/2/2
f 191/2/3 190/2/3 189/2/3
f 192/2/3 190/2/3 191/2/3
f 193/2/3 191/2/3 189/2/3
f 193/1/3 192/1/3 191/1/3
f 194/1/3 192/1/3 193/1/3
f 195/2/3 193/2/3 189/2/3
f 195/2/3 194/2/3 193/2/3
f 196/2/3 194/2/3 195/2/3
f 199/2/3 198/2/3 197/2/3
f 200/2/3 198/2/3 199/2/3
f 201/1/3 200/1/3 199/1/3
f 202/1/3 200/1/3 201/1/3
f 205/1/3 204/1/3 203/1/3
f 206/1/3 204/1/3 205/1/3
f 207/2/3 206/2/3 205/2/3
f 208/2/3 206/2/3 207/2/3
f 211/2/3 210/2/3 209/2/3
f 212/2/3 210/2/3 211/2/3
f 215/2/3 214/2/3 213/2/3
f 216/2/3 214/2/3 215/2/3
f 219/2/3 218/2/3 217/2/3
f 220/2/3 218/2/3 219/2/3
f 223/2/3 222/2/3 221/2/3
f 224/2/3 222/2/3 223/2/3
f 227/2/3 226/2/3 225/2/3
f 228/2/3 226/2/3 227/2/3
f 231/2/3 230/2/3 229/2/3
f 232/2/3 230/2/3 231/2/3
f 235/2/3 234/2/3 233/2/3
f 236/2/3 234/2/3 235/2/3
f 239/2/3 238/2/3 237/2/3
f 240/2/3 238/2/3 239/2/3
f 244/2/3 242/2/3 241/2/3
f 244/2/3 243/2/3 242/2/3
f 245/2/3 243/2/3 244/2/3
f 248/2/3 247/2/3 246/2/3
f 249/2/3 247/2/3 248/2/3
f 250/2/3 247/2/3 249/2/3
f 253/2/3 252/2/3 251/2/3
f 254/2/3 252/2/3 253/2/3
f 257/2/3 256/2/3 255/2/3
f 258/2/3 256/2/3 257/2/3
f 261/2/3 260/2/3 259/2/3
f 262/2/3 260/2/3 261/2/3
f 265/2/3 264/2/3 263/2/3
f 266/2/3 264/2/3 265/2/3
f 269/2/3 268/2/3 267/2/3
f 270/2/3 268/2/3 269/2/3
f 273/2/3 272/2/3 271/2/3
f 274/2/3 272/2/3 273/2/3
f 277/1/3 276/1/3 275/1/3
f 278/1/3 276/1/3 277/1/3
f 279/2/3 278/2/3 277/2/3
f 280/1/3 276/1/3 278/1/3
f 280/2/3 278/2/3 279/2/3
f 281/1/3 276/1/3 280/1/3
f 282/2/4 283/2/4 285/2/4
f 283/1/4 284/1/4 286/1/4
f 285/2/4 283/2/4 286/2/4
f 286/1/4 284/1/4 287/1/4
f 288/2/4 289/2/4 290/2/4
f 290/2/4 289/2/4 291/2/4
f 292/2/4 293/2/4 294/2/4
f 294/2/4 293/2/4 295/2/4
f 296/2/4 297/2/4 298/2/4
f 298/2/4 297/2/4 299/2/4
f 300/2/4 301/2/4 302/2/4
f 302/2/4 301/2/4 303/2/4
f 304/2/4 305/2/4 306/2/4
f 306/2/4 305/2/4 307/2/4
f 308/2/4 309/2/4 310/2/4
f 310/2/4 309/2/4 311/2/4
f 312/2/4 313/2/4 314/2/4
f 314/2/4 313/2/4 315/2/4
f 316/2/4 317/2/4 319/2/4
f 317/2/4 318/2/4 319/2/4
f 319/2/4 318/2/4 320/2/4
f 321/2/4 322/2/4 323/2/4
f 323/2/4 322/2/4 324/2/4
f 324/2/4 322/2/4 325/2/4
f 326/2/4 327/2/4 328/2/4
f 328/2/4 327/2/4 329/2/4
f 330/2/4 331/2/4 332/2/4
f 332/2/4 331/2/4 333/2/4
f 334/2/4 335/2/4 336/2/4
f 336/2/4 335/2/4 337/2/4
f 338/2/4 339/2/4 340/2/4
f 340/2/4 339/2/4 341/2/4
f 342/2/4 343/2/4 344/2/4
f 344/2/4 343/2/4 345/2/4
f 346/2/4 347/2/4 348/2/4
f 348/2/4 347/2/4 349/2/4
f 350/2/4 351/2/4 352/2/4
f 352/2/4 351/2/4 353/2/4
f 354/2/4 355/2/4 356/2/4
f 356/2/4 355/2/4 357/2/4
f 358/2/4 359/2/4 360/2/4
f 360/2/4 359/2/4 361/2/4
f 360/1/4 361/1/4 362/1/4
f 362/1/4 361/1/4 363/1/4
f 364/1/4 365/1/4 366/1/4
f 366/1/4 365/1/4 367/1/4
f 366/2/4 367/2/4 368/2/4
f 368/2/4 367/2/4 369/2/4
f 370/2/4 371/2/4 372/2/4
f 372/2/4 371/2/4 373/2/4
f 372/1/4 373/1/4 374/1/4
f 374/1/4 373/1/4 375/1/4
f 374/2/4 375/2/4 376/2/4
f 376/2/4 375/2/4 377/2/4
f 382/2/5 379/2/5 378/2/5
f 383/2/5 379/2/5 382/2/5
f 387/2/5 381/2/5 380/2/5
f 388/1/5 382/1/5 381/1/5
f 388/2/5 381/2/5 387/2/5
f 389/2/5 383/2/5 382/2/5
f 389/1/5 382/1/5 388/1/5
f 390/1/5 384/1/5 383/1/5
f 390/2/5 383/2/5 389/2/5
f 391/2/5 385/2/5 384/2/5
f 391/1/5 384/1/5 390/1/5
f 392/2/5 385/2/5 391/2/5
f 395/2/5 390/2/5 389/2/5
f 395/2/5 393/2/5 392/2/5
f 395/2/5 392/2/5 391/2/5
f 395/2/5 391/2/5 390/2/5
f 395/2/5 387/2/5 386/2/5
f 395/2/5 389/2/5 388/2/5
f 395/2/5 388/2/5 387/2/5
f 396/2/5 393/2/5 395/2/5
f 399/2/5 395/2/5 394/2/5
f 399/2/5 397/2/5 396/2/5
f 399/2/5 396/2/5 395/2/5
f 400/2/5 397/2/5 399/2/5
f 402/2/5 399/2/5 398/2/5
f 402/2/5 401/2/5 400/2/5
f 402/2/5 400/2/5 399/2/5
f 403/2/5 401/2/5 402/2/5
f 404/2/5 401/2/5 403/2/5
f 405/2/5 401/2/5 404/2/5
f 407/1/5 403/1/5 402/1/5
f 408/2/5 404/2/5 403/2/5
f 408/1/5 403/1/5 407/1/5
f 409/1/5 405/1/5 404/1/5
f 409/2/5 404/2/5 408/2/5
f 410/1/5 405/1/5 409/1/5
f 412/2/5 410/2/5 409/2/5
f 412/2/5 411/2/5 410/2/5
f 412/2/5 409/2/5 408/2/5
f 412/2/5 407/2/5 406/2/5
f 412/2/5 408/2/5 407/2/5
f 413/2/5 411/2/5 412/2/5
f 414/2/5 411/2/5 413/2/5
f 415/2/5 411/2/5 414/2/5
f 416/1/5 413/1/5 412/1/5
f 417/2/5 414/2/5 413/2/5
f 417/1/5 413/1/5 416/1/5
f 418/1/5 415/1/5 414/1/5
f 418/2/5 414/2/5 417/2/5
f 419/1/5 415/1/5 418/1/5
f 420/2/5 417/2/5 416/2/5
f 420/2/5 418/2/5 417/2/5
f 420/2/5 419/2/5 418/2/5
f 421/2/5 419/2/5 420/2/5
f 422/2/5 419/2/5 421/2/5
f 423/2/5 419/2/5 422/2/5
f 424/2/5 419/2/5 423/2/5
f 425/2/5 419/2/5 424/2/5
f 426/1/5 422/1/5 421/1/5
f 427/2/5 423/2/5 422/2/5
f 427/1/5 422/1/5 426/1/5
f 428/1/5 424/1/5 423/1/5
f 428/2/5 423/2/5 427/2/5
f 429/1/5 424/1/5 428/1/5
f 430/2/5 427/2/5 426/2/5
f 430/2/5 428/2/5 427/2/5
f 430/2/5 429/2/5 428/2/5
f 431/2/5 429/2/5 430/2/5
f 432/2/5 429/2/5 431/2/5
f 433/2/5 429/2/5 432/2/5
f 434/2/5 432/2/5 431/2/5
f 435/2/5 432/2/5 434/2/5
f 436/2/5 432/2/5 435/2/5
f 437/2/5 432/2/5 436/2/5
f 438/2/5 436/2/5 435/2/5
f 439/2/5 436/2/5 438/2/5
f 440/2/5 436/2/5 439/2/5
f 441/2/5 436/2/5 440/2/5
f 442/2/5 436/2/5 441/2/5
f 443/2/5 436/2/5 442/2/5
f 444/2/5 436/2/5 443/2/5
f 445/2/5 436/2/5 444/2/5
f 446/2/5 440/2/5 439/2/5
f 447/1/5 441/1/5 440/1/5
f 447/2/5 440/2/5 446/2/5
f 448/1/5 441/1/5 447/1/5
f 449/2/5 442/2/5 441/2/5
f 449/1/5 441/1/5 448/1/5
f 450/2/5 442/2/5 449/2/5
f 451/2/5 442/2/5 450/2/5
f 452/1/5 443/1/5 442/1/5
f 452/2/5 442/2/5 451/2/5
f 453/2/5 444/2/5 443/2/5
f 453/1/5 443/1/5 452/1/5
f 454/2/5 444/2/5 453/2/5
f 455/2/5 450/2/5 449/2/5
f 455/2/5 449/2/5 448/2/5
f 456/1/5 451/1/5 450/1/5
f 456/2/5 450/2/5 455/2/5
f 457/2/5 452/2/5 451/2/5
f 457/1/5 451/1/5 456/1/5
f 458/2/5 452/2/5 457/2/5
f 461/2/5 460/2/5 459/2/5
f 462/2/5 460/2/5 461/2/5
f 463/2/6 464/2/6 466/2/6
f 466/2/6 464/2/6 467/2/6
f 465/2/6 466/2/6 470/2/6
f 467/2/6 468/2/6 470/2/6
f 466/2/6 467/2/6 470/2/6
f 470/2/6 468/2/6 471/2/6
f 469/2/6 470/2/6 474/2/6
f 471/2/6 472/2/6 474/2/6
f 470/2/6 471/2/6 474/2/6
f 474/2/6 472/2/6 475/2/6
f 473/2/6 474/2/6 477/2/6
f 475/2/6 476/2/6 477/2/6
f 474/2/6 475/2/6 477/2/6
f 473/2/6 477/2/6 480/2/6
f 477/2/6 478/2/6 480/2/6
f 480/2/6 478/2/6 481/2/6
f 479/2/6 480/2/6 482/2/6
f 480/2/6 481/2/6 482/2/6
f 482/2/6 481/2/6 483/2/6
f 483/2/6 481/2/6 484/2/6
f 484/2/6 481/2/6 485/2/6
f 483/2/6 484/2/6 486/2/6
f 486/2/6 484/2/6 487/2/6
f 487/2/6 484/2/6 488/2/6
f 488/2/6 484/2/6 489/2/6
f 487/2/6 488/2/6 490/2/6
f 490/2/6 488/2/6 491/2/6
f 491/2/6 488/2/6 492/2/6
f 492/2/6 488/2/6 493/2/6
f 491/2/6 492/2/6 494/2/6
f 494/2/6 492/2/6 495/2/6
f 495/2/6 492/2/6 496/2/6
f 496/2/6 492/2/6 497/2/6
f 495/2/6 496/2/6 498/2/6
f 498/2/6 496/2/6 499/2/6
f 499/2/6 496/2/6 500/2/6
f 501/2/6 502/2/6 507/2/6
f 502/1/6 503/1/6 508/1/6
f 507/2/6 502/2/6 508/2/6
f 503/2/6 504/2/6 509/2/6
f 508/1/6 503/1/6 509/1/6
f 509/2/6 504/2/6 510/2/6
f 505/2/6 506/2/6 514/2/6
f 506/1/6 507/1/6 515/1/6
f 507/1/6 508/1/6 515/1/6
f 514/2/6 506/2/6 515/2/6
f 508/1/6 509/1/6 515/1/6
f 510/1/6 511/1/6 515/1/6
f 509/1/6 510/1/6 515/1/6
f 515/1/6 511/1/6 516/1/6
f 516/1/6 511/1/6 517/1/6
f 511/2/6 512/2/6 518/2/6
f 517/1/6 511/1/6 518/1/6
f 518/2/6 512/2/6 519/2/6
f 513/2/6 514/2/6 522/2/6
f 514/2/6 515/2/6 522/2/6
f 515/2/6 516/2/6 522/2/6
f 522/2/6 516/2/6 523/2/6
f 523/2/6 516/2/6 524/2/6
f 519/2/6 520/2/6 525/2/6
f 518/2/6 519/2/6 525/2/6
f 517/2/6 518/2/6 525/2/6
f 525/2/6 520/2/6 526/2/6
f 526/2/6 520/2/6 527/2/6
f 522/2/6 523/2/6 529/2/6
f 521/2/6 522/2/6 529/2/6
f 529/2/6 523/2/6 530/2/6
f 527/2/6 528/2/6 531/2/6
f 526/2/6 527/2/6 531/2/6
f 531/2/6 528/2/6 532/2/6
f 521/2/6 529/2/6 534/2/6
f 534/2/6 529/2/6 535/2/6
f 535/2/6 529/2/6 536/2/6
f 532/2/6 528/2/6 537/2/6
f 537/2/6 528/2/6 538/2/6
f 538/2/6 528/2/6 539/2/6
f 533/2/6 534/2/6 541/2/6
f 534/2/6 535/2/6 541/2/6
f 541/2/6 535/2/6 542/2/6
f 539/2/6 540/2/6 543/2/6
f 538/2/6 539/2/6 543/2/6
f 543/2/6 540/2/6 544/2/6
f 541/1/6 542/1/6 546/1/6
f 542/2/6 535/2/6 547/2/6
f 546/1/6 542/1/6 547/1/6
f 547/2/6 535/2/6 548/2/6
f 538/2/6 543/2/6 549/2/6
f 543/1/6 544/1/6 550/1/6
f 549/2/6 543/2/6 550/2/6
f 550/1/6 544/1/6 551/1/6
f 545/2/6 546/2/6 553/2/6
f 546/1/6 547/1/6 554/1/6
f 553/2/6 546/2/6 554/2/6
f 551/2/6 552/2/6 555/2/6
f 550/1/6 551/1/6 555/1/6
f 555/2/6 552/2/6 556/2/6
f 553/1/6 554/1/6 557/1/6
f 554/1/6 547/1/6 558/1/6
f 557/1/6 554/1/6 558/1/6
f 550/1/6 555/1/6 559/1/6
f 555/1/6 556/1/6 559/1/6
f 559/1/6 556/1/6 560/1/6
f 557/2/6 558/2/6 561/2/6
f 558/1/6 547/1/6 562/1/6
f 561/2/6 558/2/6 562/2/6
f 562/1/6 547/1/6 563/1/6
f 550/1/6 559/1/6 566/1/6
f 559/2/6 560/2/6 567/2/6
f 566/1/6 559/1/6 567/1/6
f 567/2/6 560/2/6 568/2/6
f 562/1/6 563/1/6 569/1/6
f 563/2/6 564/2/6 570/2/6
f 569/1/6 563/1/6 570/1/6
f 565/2/6 566/2/6 571/2/6
f 566/1/6 567/1/6 571/1/6
f 571/1/6 567/1/6 572/1/6
f 569/2/6 570/2/6 573/2/6
f 570/2/6 564/2/6 574/2/6
f 573/2/6 570/2/6 574/2/6
f 574/2/6 564/2/6 575/2/6
f 565/2/6 571/2/6 578/2/6
f 571/2/6 572/2/6 578/2/6
f 578/2/6 572/2/6 579/2/6
f 579/2/6 572/2/6 580/2/6
f 575/2/6 576/2/6 581/2/6
f 574/2/6 575/2/6 581/2/6
f 578/2/6 579/2/6 584/2/6
f 577/2/6 578/2/6 584/2/6
f 581/2/6 582/2/6 585/2/6
f 574/2/6 581/2/6 585/2/6
f 585/2/6 582/2/6 586/2/6
f 586/2/6 582/2/6 587/2/6
f 583/2/6 584/2/6 590/2/6
f 584/2/6 579/2/6 591/2/6
f 590/2/6 584/2/6 591/2/6
f 591/2/6 579/2/6 592/2/6
f 587/2/6 588/2/6 593/2/6
f 586/2/6 587/2/6 593/2/6
f 593/2/6 588/2/6 594/2/6
f 594/2/6 588/2/6 595/2/6
f 595/2/6 588/2/6 596/2/6
f 589/2/6 590/2/6 597/2/6
f 590/2/6 591/2/6 597/2/6
f 597/2/6 591/2/6 598/2/6
f 598/2/6 591/2/6 599/2/6
f 599/2/6 591/2/6 600/2/6
f 594/2/6 595/2/6 601/2/6
f 595/1/6 596/1/6 602/1/6
f 601/2/6 595/2/6 602/2/6
f 596/1/6 597/1/6 602/1/6
f 597/1/6 598/1/6 602/1/6
f 602/1/6 598/1/6 603/1/6
f 603/1/6 598/1/6 604/1/6
f 604/1/6 598/1/6 605/1/6
f 605/1/6 598/1/6 606/1/6
f 598/2/6 599/2/6 607/2/6
f 606/1/6 598/1/6 607/1/6
f 607/2/6 599/2/6 608/2/6
f 603/2/6 604/2/6 609/2/6
f 604/1/6 605/1/6 610/1/6
f 609/2/6 604/2/6 610/2/6
f 605/2/6 606/2/6 611/2/6
f 610/1/6 605/1/6 611/1/6
f 611/2/6 606/2/6 612/2/6
